<?xml version="1.0" encoding="utf-8"?>
<!-- Generator: Adobe Illustrator 28.2.0, SVG Export Plug-In . SVG Version: 6.00 Build 0)  -->
<svg version="1.1" id="ff89978a-9cc6-4db0-9bd2-e66489869078"
	 xmlns="http://www.w3.org/2000/svg" xmlns:xlink="http://www.w3.org/1999/xlink" x="0px" y="0px" viewBox="0 0 1048.7 812.5"
	 style="enable-background:new 0 0 1048.7 812.5;" xml:space="preserve">
<style type="text/css">
	.st0{opacity:0.1;fill:#667EEA;enable-background:new    ;}
	.st1{fill:#EEC5CD;}
	.st2{fill:#D48A9B;}
	.st3{opacity:0.1;enable-background:new    ;}
	.st4{fill:#FFFFFF;}
	.st5{fill:#667EEA;}
	.st6{opacity:0.2;fill:#FFFFFF;enable-background:new    ;}
	.st7{opacity:0.1;}
	.st8{fill:url(#SVGID_1_);}
	.st9{fill:#575989;}
	.st10{fill:#FFD7E3;}
	.st11{fill:#3F2B3B;}
	.st12{fill:#C77486;}
	.st13{opacity:5.000000e-02;enable-background:new    ;}
	.st14{fill:#D4DFEC;}
	.st15{fill:#DCE6F2;}
	.st16{fill:#FEFFFF;}
	.st17{fill:#464A5F;}
	.st18{fill:#939498;}
	.st19{fill:#4B4770;}
	.st20{fill:#E8EAF2;}
	.st21{fill:#F1CEC8;}
	.st22{fill:#42312E;}
	.st23{fill:#F6E2DF;}
	.st24{fill:#F2DCDC;}
	.st25{opacity:0.2;enable-background:new    ;}
	.st26{fill:#9C9CA1;}
</style>
<ellipse class="st0" cx="550.9" cy="713.2" rx="130.6" ry="14.5"/>
<ellipse class="st0" cx="421.5" cy="786.7" rx="34.6" ry="3.8"/>
<ellipse class="st0" cx="757.5" cy="808.7" rx="34.6" ry="3.8"/>
<ellipse class="st0" cx="979.5" cy="724.7" rx="34.6" ry="3.8"/>
<ellipse class="st0" cx="142.9" cy="763" rx="130.6" ry="29.9"/>
<path class="st0" d="M60.1,306.4H152v125.3H66.8c-0.2,1.3-0.4,2.6-0.7,3.9H152v101.1c-0.1,0-0.3-0.1-0.4-0.2c-2.4-1-4.9-2-7.2-3
	l-1.6-0.7c-2.4-1.1-4.9-2.3-7.2-3.6c-0.8-0.4-1.7-0.9-2.5-1.4c-13.4-7.5-25.6-17-36.2-28.2c-0.3-0.3-0.6-0.6-0.9-0.9
	c-1.5-1.6-2.9-3.2-4.3-4.8l-1.6-1.8c-1.6-2-3.2-4.1-4.8-6.2c-0.2-0.3-0.4-0.6-0.7-0.9c-6.3-8.7-11.5-18.2-15.6-28.2
	c-0.1-0.3-0.2-0.6-0.4-0.9c-1.3-3.2-2.4-6.4-3.4-9.7c-0.4-1.4-0.8-2.8-1.2-4.1c-0.1-0.4-0.2-0.8-0.3-1.2
	c-5.1-20.1-5.7-40.9-5.7-61.7c0-2.4,0-4.8,0-7.2c0-8.4,0.1-16.8,0.2-25.2c0.1-2.2,0.1-4.4,0.1-6.5c0.1-5.6,0.3-11.1,0.5-16.7
	c0.1-1.5,0.1-3.1,0.2-4.6c0-0.9,0.1-1.8,0.1-2.7C59.7,312.8,59.9,309.6,60.1,306.4z"/>
<path class="st0" d="M152,166.9h-50.4c8.2-12.8,17.2-25.2,26.8-36.9c7.5-9.2,15.4-18.2,23.6-26.8L152,166.9z"/>
<path class="st0" d="M152,170.7v131.8H60.3c0-0.4,0.1-0.8,0.1-1.2c0.1-1,0.2-2.1,0.2-3.1c0.1-1.2,0.2-2.4,0.3-3.7s0.2-2.6,0.4-4
	s0.3-2.6,0.4-4s0.3-2.6,0.4-3.9s0.3-2.6,0.5-3.9c0.1-1.1,0.3-2.2,0.4-3.3c0.2-1.5,0.4-3.1,0.7-4.6c0-0.2,0.1-0.5,0.1-0.7
	c1.7-11.1,3.9-22.2,6.8-33.1c3-11.4,6.8-22.6,11.4-33.5c4.9-11.4,10.6-22.4,17.1-32.9L152,170.7z"/>
<path class="st0" d="M174,306.4v125.3h196.4V306.4H174z M174,435.6v107.7c1.1,0.2,2.2,0.5,3.3,0.7c1.5,0.3,3,0.5,4.5,0.8
	c0.3,0,0.6,0.1,0.9,0.1c0.6,0.1,1.2,0.2,1.8,0.3c1.5,0.2,3,0.4,4.5,0.5l2.2,0.2l1.8,0.1l0,0c1,0.1,1.9,0.1,2.8,0.2
	c0.6,0,1.2,0,1.8,0.1h1.4h1.7c0.8,0,1.6,0,2.3,0h1c0.8,0,1.6,0,2.3-0.1l0,0l0,0c0.5,0,1.1,0,1.6-0.1c0.2,0,0.3,0,0.5,0
	c0.5,0,0.9,0,1.3-0.1h0.3l3-0.2c1-0.1,2-0.2,3-0.3l2.1-0.2c8.4-1.2,16.7-2.9,24.9-5.3c18.3-5.1,36.2-12.3,54.5-17.5
	c23.8-6.8,50-10.1,72.8-1.9v-84.9H174z M370.3,166.9V0c-21.5-0.2-42.9,2.3-63.8,7.5C256.8,20,212.2,47.1,174,81.7v85.2h9.8v3.9h-9.9
	v131.8h196.4V170.7h-146v-3.9L370.3,166.9z M622.6,110.5c-12.3-0.4-24.5-4.3-35.6-10.4c-21.2-11.5-38.1-29.3-56.9-44.3
	C490.9,24.7,442.2,5.8,392.3,1.1v165.7h280.3l0.7-0.7L622.6,110.5z M648.2,105.9l27.1,29.7V98.1C666.2,99.3,658.2,102,648.2,105.9
	L648.2,105.9z M675.2,569.9V435.6h-57.7c-0.2-0.6-0.3-1.1-0.5-1.7c0.2,0.6,0.3,1.2,0.5,1.7H392.3v97.2c2.1,1.6,4.2,3.3,6.3,5l0,0
	c2.3,1.8,4.5,3.7,6.7,5.6l2.2,1.9c1.1,0.9,2.2,1.8,3.3,2.7c2.2,1.8,4.4,3.5,6.6,5.2c1.1,0.9,2.2,1.7,3.3,2.6
	c17.7,13.5,36.4,25.7,55.8,36.5c4.4,2.4,8.8,4.8,13.2,7.1c3,1.5,5.9,3,8.9,4.5c4.5,2.2,9,4.3,13.6,6.4l0,0
	c42.1,18.9,86.6,31.9,132.3,38.5c10.1,1.5,20.3,2.7,30.5,3.5V569.9h0.9H675.2z M392.3,170.7v131.8h282.9V170.7H392.3z M392.3,306.4
	v125.3h282.9V306.4H392.3z M697.2,98v41.9l34.6-37.9C720.3,100.1,708.8,98.8,697.2,98z M697.2,306.4v125.3h275.2V306.4H697.2z
	 M971.4,579.9l1-144.3H697.2v218c17.7,0.7,35.5,0.5,53.2-0.6l0,0h0.3c8.4-0.5,16.9-1.3,25.2-2.3h0.2c44.7-5.2,88.4-16.9,129.7-34.6
	 M1025.5,327.1c-1-2.4-2.1-4.9-3.2-7.3c-2-4.5-4.2-8.9-6.4-13.3h-21.5v125.2h54.3C1048.6,396.3,1039.6,360,1025.5,327.1
	L1025.5,327.1z M994.4,435.7v124c15.3-14.7,28.2-31.4,37.5-50.6c11.2-23.1,16.3-48.1,16.7-73.5L994.4,435.7z M994.4,270v32.6h19.5
	C1007.9,291.4,1001.4,280.4,994.4,270L994.4,270z M807.8,122.6c-1.4-0.6-2.9-1.1-4.3-1.6c-15.2-5.6-30.7-10.3-46.5-14l-52.9,58l0,0
	l-1,1.1l0.7,0.7H892C865.7,148.8,837.5,133.9,807.8,122.6z M897.5,170.7H701.1l-3.9,3.5v128.2h33.8l0,0l0,0h241.3v-62.1
	C950.6,214,925.4,190.6,897.5,170.7L897.5,170.7z"/>
<path class="st0" d="M152,237.2v65.3H60.3c0-0.4,0.1-0.8,0.1-1.2c0.1-1,0.2-2.1,0.2-3.1c0.1-1.2,0.2-2.4,0.3-3.7s0.2-2.6,0.4-4
	s0.3-2.6,0.4-4s0.3-2.6,0.4-3.9s0.3-2.6,0.5-3.9c0.1-1.1,0.3-2.2,0.4-3.3c0.2-1.5,0.4-3.1,0.7-4.6c0-0.2,0.1-0.5,0.1-0.7
	c1.7-11.1,3.9-22.2,6.8-33.1L152,237.2z"/>
<path class="st0" d="M60.1,306.4H152v125.3H66.8c-0.2,1.3-0.4,2.6-0.7,3.9H152v101.1c-0.1,0-0.3-0.1-0.4-0.2c-2.4-1-4.9-2-7.2-3
	l-1.6-0.7c-2.4-1.1-4.9-2.3-7.2-3.6c-0.8-0.4-1.7-0.9-2.5-1.4c-13.4-7.5-25.6-17-36.2-28.2c-0.3-0.3-0.6-0.6-0.9-0.9
	c-1.5-1.6-2.9-3.2-4.3-4.8l-1.6-1.8c-1.6-2-3.2-4.1-4.8-6.2c-0.2-0.3-0.4-0.6-0.7-0.9c-6.3-8.7-11.5-18.2-15.6-28.2
	c-0.1-0.3-0.2-0.6-0.4-0.9c-1.3-3.2-2.4-6.4-3.4-9.7c-0.4-1.4-0.8-2.8-1.2-4.1c-0.1-0.4-0.2-0.8-0.3-1.2
	c-5.1-20.1-5.7-40.9-5.7-61.7c0-2.4,0-4.8,0-7.2c0-8.4,0.1-16.8,0.2-25.2c0.1-2.2,0.1-4.4,0.1-6.5c0.1-5.6,0.3-11.1,0.5-16.7
	c0.1-1.5,0.1-3.1,0.2-4.6c0-0.9,0.1-1.8,0.1-2.7C59.7,312.8,59.9,309.6,60.1,306.4z"/>
<polygon class="st0" points="243.1,189.6 243.1,302.5 174,302.5 174,189.6 183.8,189.6 183.8,151.4 224.3,151.4 224.3,189.6 "/>
<rect x="174" y="306.4" class="st0" width="69.1" height="125.3"/>
<path class="st0" d="M174,435.6h69.1v104.2c-8.2,2.3-16.5,4.1-24.9,5.3c-0.7,0.1-1.4,0.2-2.1,0.3c-1,0.1-2,0.2-3,0.3l-3,0.2h-0.3
	c-0.4,0-0.9,0-1.3,0.1c-0.2,0-0.3,0-0.5,0c-0.5,0-1.1,0.1-1.6,0.1l0,0l0,0c-0.8,0-1.5,0-2.3,0.1h-1c-0.8,0-1.5,0-2.3,0h-1.7
	c-0.5,0-0.9,0-1.4,0s-1.2,0-1.8-0.1c-0.9,0-1.9-0.1-2.8-0.2l0,0l-1.7-0.1l-2.2-0.2c-1.5-0.1-3-0.3-4.5-0.5c-0.6-0.1-1.2-0.2-1.8-0.3
	c-0.3,0-0.6-0.1-0.9-0.1c-1.5-0.2-3-0.5-4.5-0.8c-1.1-0.2-2.2-0.4-3.4-0.7L174,435.6z"/>
<rect x="618.3" y="176.3" class="st0" width="57" height="126.3"/>
<polygon class="st0" points="675.3,306.4 675.3,431.7 392.3,431.7 392.3,377.7 543,377.7 543,409.5 618.3,409.5 618.3,306.4 "/>
<path class="st0" d="M676.2,570h-0.9v82.2c-10.2-0.9-20.4-2-30.5-3.5C599,642,554.5,629,512.4,610.1c-12.2-5.5-24.1-11.5-35.7-17.9
	c-19.5-10.8-38.1-23-55.8-36.5c-4.4-3.4-8.8-6.9-13.2-10.5c-3-2.5-6-5-9-7.5c-2.1-1.7-4.2-3.4-6.3-5v-97.1h225.2
	c-0.2-0.6-0.3-1.1-0.5-1.7c0.2,0.6,0.3,1.2,0.5,1.7h57.8v134.3L676.2,570z"/>
<path class="st0" d="M823.9,166.9h-37.1v-11.6h16.6v-34.3c1.4,0.5,2.9,1.1,4.3,1.6v32.7h16.2V166.9z"/>
<path class="st0" d="M913.4,302.5H731.1h0.1H731h-33.8V176.3h9.6v93.3h43.8v-55.2h36.2v-43.6h37.1v43.6h36.2v55.2h53.3V302.5z"/>
<path class="st0" d="M697.2,306.4v125.3h216.2V306.4H697.2z M972.1,579.3l0.3-99.2h-59v-44.5H697.2v218c17.7,0.7,35.5,0.5,53.2-0.6
	l0,0h0.3c8.4-0.5,16.9-1.3,25.2-2.3h0.2c44.7-5.2,88.4-16.9,129.7-34.6"/>
<path class="st0" d="M998.2,435.6h50.4c-0.4,25.5-5.6,50.5-16.7,73.5c-9.3,19.2-22.2,35.9-37.5,50.6V480h3.8V435.6z"/>
<path class="st0" d="M1048.7,431.7h-50.5V327h27.3C1039.6,360,1048.6,396.3,1048.7,431.7z"/>
<rect x="644.7" y="211.4" class="st0" width="30.5" height="39.6"/>
<rect x="644.7" y="293.4" class="st0" width="30.5" height="9.1"/>
<rect x="644.7" y="306.4" class="st0" width="30.5" height="26.6"/>
<rect x="644.7" y="375.5" class="st0" width="30.5" height="39.6"/>
<rect x="644.7" y="457.5" class="st0" width="30.5" height="39.6"/>
<path class="st0" d="M675.3,569.9l0.9,0.1L675.3,569.9v9.2h-30.5v-39.6h30.5V569.9z"/>
<path class="st0" d="M675.3,621.6v30.6c-10.2-0.9-20.4-2-30.5-3.5v-27L675.3,621.6z"/>
<rect x="392.3" y="428.8" class="st0" width="130.9" height="2.9"/>
<rect x="392.3" y="435.6" class="st0" width="130.9" height="11.1"/>
<rect x="392.3" y="483.3" class="st0" width="130.9" height="17.9"/>
<path class="st0" d="M523.2,537.7v17.9H420.8c-4.4-3.4-8.8-6.9-13.2-10.5c-3-2.5-6-5-9-7.5L523.2,537.7z"/>
<path class="st0" d="M523.2,592.2v17.9h-10.8c-12.2-5.5-24.1-11.5-35.7-17.9H523.2z"/>
<rect x="750.4" y="318.5" class="st0" width="25.8" height="25.8"/>
<rect x="192.5" y="198.5" class="st0" width="25.8" height="25.8"/>
<rect x="192.5" y="258.3" class="st0" width="25.8" height="25.8"/>
<rect x="192.5" y="318.2" class="st0" width="25.8" height="25.8"/>
<rect x="192.5" y="378" class="st0" width="25.8" height="25.8"/>
<rect x="192.5" y="437.9" class="st0" width="25.8" height="25.8"/>
<rect x="192.5" y="497.7" class="st0" width="25.8" height="25.8"/>
<rect x="848.8" y="318.5" class="st0" width="25.8" height="25.8"/>
<rect x="750.4" y="382.1" class="st0" width="25.8" height="25.8"/>
<rect x="848.8" y="382.1" class="st0" width="25.8" height="25.8"/>
<rect x="750.4" y="445.6" class="st0" width="25.8" height="25.8"/>
<rect x="848.8" y="445.6" class="st0" width="25.8" height="25.8"/>
<rect x="750.4" y="509.2" class="st0" width="25.8" height="25.8"/>
<rect x="848.8" y="509.2" class="st0" width="25.8" height="25.8"/>
<rect x="750.4" y="572.7" class="st0" width="25.8" height="25.8"/>
<rect x="848.8" y="572.7" class="st0" width="25.8" height="25.8"/>
<polygon class="st0" points="750.4,652.9 750.4,636.3 776.2,636.3 776.2,650.5 "/>
<path class="st0" d="M63.8,270.3V285H152v-14.7H63.8z M72.6,284.1h-7.2v-12.8h7.2V284.1z M81.4,284.1h-7.2v-12.8h7.2V284.1z
	 M90.2,284.1h-7.2v-12.8h7.2L90.2,284.1z M98.9,284.1h-7.2v-12.8h7.2V284.1z M107.7,284.1h-7.2v-12.8h7.2V284.1z M116.5,284.1h-7.2
	v-12.8h7.2V284.1z M125.3,284.1H118v-12.8h7.2V284.1z M134,284.1h-7.2v-12.8h7.2V284.1z M142.8,284.1h-7.2v-12.8h7.2V284.1z
	 M151.6,284.1h-7.2v-12.8h7.2L151.6,284.1z"/>
<path class="st0" d="M63.8,313.2v14.7H152v-14.7H63.8z M72.6,327h-7.2v-12.9h7.2V327z M81.4,327h-7.2v-12.9h7.2V327z M90.2,327h-7.2
	v-12.9h7.2L90.2,327z M98.9,327h-7.2v-12.9h7.2V327z M107.7,327h-7.2v-12.9h7.2V327z M116.5,327h-7.2v-12.9h7.2V327z M125.3,327H118
	v-12.9h7.2V327z M134,327h-7.2v-12.9h7.2V327z M142.8,327h-7.2v-12.9h7.2V327z M151.6,327h-7.2v-12.9h7.2L151.6,327z"/>
<path class="st0" d="M63.8,356.1v14.7H152v-14.7H63.8z M72.6,369.9h-7.2V357h7.2V369.9z M81.4,369.9h-7.2V357h7.2V369.9z
	 M90.2,369.9h-7.2V357h7.2L90.2,369.9z M98.9,369.9h-7.2V357h7.2V369.9z M107.7,369.9h-7.2V357h7.2V369.9z M116.5,369.9h-7.2V357
	h7.2V369.9z M125.3,369.9H118V357h7.2V369.9z M134,369.9h-7.2V357h7.2V369.9z M142.8,369.9h-7.2V357h7.2V369.9z M151.6,369.9h-7.2
	V357h7.2L151.6,369.9z"/>
<path class="st0" d="M63.8,399v14.7H152V399H63.8z M72.6,412.8h-7.2v-12.9h7.2V412.8z M81.4,412.8h-7.2v-12.9h7.2V412.8z
	 M90.2,412.8h-7.2v-12.9h7.2L90.2,412.8z M98.9,412.8h-7.2v-12.9h7.2V412.8z M107.7,412.8h-7.2v-12.9h7.2V412.8z M116.5,412.8h-7.2
	v-12.9h7.2V412.8z M125.3,412.8H118v-12.9h7.2V412.8z M134,412.8h-7.2v-12.9h7.2V412.8z M142.8,412.8h-7.2v-12.9h7.2V412.8z
	 M151.6,412.8h-7.2v-12.9h7.2L151.6,412.8z"/>
<path class="st0" d="M64.2,441.9c0.4,1.4,0.8,2.8,1.2,4.1v-3.2h7.2v12.9h-3.9c0.1,0.3,0.2,0.6,0.4,0.9H152v-14.7H64.2z M81.4,455.7
	h-7.2v-12.9h7.2V455.7z M90.2,455.7h-7.2v-12.9h7.2V455.7z M98.9,455.7h-7.2v-12.9h7.2V455.7z M107.7,455.7h-7.2v-12.9h7.2V455.7z
	 M116.5,455.7h-7.2v-12.9h7.2V455.7z M125.3,455.7H118v-12.9h7.2V455.7z M134,455.7h-7.2v-12.9h7.2V455.7z M142.8,455.7h-7.2v-12.9
	h7.2V455.7z M151.6,455.7h-7.3v-12.9h7.2L151.6,455.7z"/>
<path class="st0" d="M84.7,484.8c0.2,0.3,0.4,0.6,0.7,0.9h4.8v6.2l1.6,1.8v-8h7.2v12.9H96c0.3,0.3,0.6,0.6,0.9,0.9H152v-14.8H84.7z
	 M107.7,498.6h-7.2v-12.9h7.2V498.6z M116.5,498.6h-7.2v-12.9h7.2V498.6z M125.2,498.6H118v-12.9h7.2V498.6z M134,498.6h-7.2v-12.9
	h7.2V498.6z M142.8,498.6h-7.2v-12.9h7.2V498.6z M151.6,498.6h-7.2v-12.9h7.2L151.6,498.6z"/>
<path class="st0" d="M133.1,527.7c0.8,0.5,1.7,0.9,2.5,1.4v-0.5h7.2v4.1l1.5,0.7v-4.8h7.2v7.8c0.1,0.1,0.3,0.1,0.4,0.2v-8.9
	L133.1,527.7z"/>
<path class="st0" d="M731.1,302.5L731.1,302.5L731.1,302.5z M675.3,569.9L675.3,569.9h0.9H675.3z M617,433.9
	c0.2,0.6,0.3,1.2,0.5,1.7l0,0C617.3,435,617.2,434.4,617,433.9L617,433.9z M731,302.6L731,302.6L731,302.6z M183.8,166.9v3.9h40.5
	v-3.9H183.8z M675.3,569.9L675.3,569.9h0.9H675.3z M617,433.9c0.2,0.6,0.3,1.2,0.5,1.7l0,0C617.3,435,617.2,434.4,617,433.9
	L617,433.9z M731,302.5L731,302.5L731,302.5z M675.3,569.9L675.3,569.9h0.9H675.3z M617,433.9c0.2,0.6,0.3,1.2,0.5,1.7l0,0
	C617.3,435,617.2,434.4,617,433.9L617,433.9z"/>
<polygon class="st1" points="7.8,396.6 1,397 7.8,440.9 24.5,487.2 29.4,475.1 673.1,425.8 673,406.1 576,370.6 "/>
<polygon class="st2" points="585.7,512.2 578.7,509 543.9,493 543.4,485.8 576.5,500.5 583.2,503.5 "/>
<polygon class="st2" points="104.7,535.7 102.7,546.3 97.7,539.4 90.2,529.3 85,522.2 87.8,516.5 92.2,521.4 94.6,524.2 98.8,529 
	99.3,529.6 "/>
<path class="st2" d="M566.2,626.3c-0.8,4.7-3.2,4.1-5.3,2.3c-2.5-2.1-4.2-5.1-4.5-8.4l-18.6-137.8l-0.7-5l-0.8-6l-0.7-4.9l-1.3-10
	l-0.9-6.3l9.6-3.4l1.2,9l2.9,22l0.7,4.9l0.7,5.2l0.1,1l0.7,5l0.2,1.5l16.8,126.3C566.4,623.3,566.4,624.8,566.2,626.3z"/>
<polygon class="st3" points="585.7,512.2 578.7,509 576.9,502 576.5,500.5 583.2,503.5 "/>
<path class="st2" d="M634,671.7c-0.5,4.2-2.7,4.7-5,4c-3.2-1-5.6-3.6-6.4-6.9l-40.7-158.3l-2.2-8.5l-12.2-47.6l-1.6-6l8.2-9.6
	l3.9,15l55.7,213.8C634.1,668.8,634.2,670.3,634,671.7z"/>
<polygon class="st3" points="549.2,494 545.6,490.4 544,488.8 537.7,482.4 537,477.5 536.2,471.5 544.2,479.3 547.7,482.8 
	548.4,488 548.5,489 "/>
<polygon class="st2" points="570.3,500.6 560.2,500.6 559.9,500.3 548.5,489 546.9,487.3 537,477.5 517.2,457.7 513.2,453.6 
	519.9,451.2 525.9,457.1 535.5,466.6 547,477.9 564.9,495.3 "/>
<path class="st2" d="M100.3,476.2l-2.2,9.1l-8.2,33.6l-1.9,7.6L53.4,668.1c-0.5,2.1-1.4,4-2.8,5.6c-3.3,4-5.4,2.1-6.6-0.3
	c-1-2.2-1.3-4.7-0.7-7.1l44.4-180.4l2.4-9.8L100.3,476.2z"/>
<polygon class="st2" points="151.7,475.7 145.3,482.1 119.9,507.8 118.1,509.6 114.6,513.1 104.8,523 103,524.8 99.6,528.3 
	98.8,529 97,530.9 92.7,526.1 94.6,524.2 101.4,517.6 104.8,514.3 106.6,512.6 116.4,503 119.9,499.6 121.7,497.9 137.3,482.7 
	144.5,475.7 "/>
<polygon class="st3" points="121.7,497.9 121.4,499.6 119.9,507.8 118.1,509.6 104.8,523 106.3,514.3 106.6,512.6 119.9,499.6 "/>
<polygon class="st3" points="99.3,529.6 104.7,535.7 102.7,546.3 97.7,539.4 98.9,532.4 "/>
<polygon class="st3" points="116.4,503 115.2,509.6 114.6,513.1 104.8,523 103,524.8 99.6,528.3 100.2,524.8 101.4,517.6 
	104.8,514.3 106.6,512.6 "/>
<path class="st2" d="M124.8,472.8l-2,10.8l-2.9,16l-1.8,10L78.2,728.7c-3.6,9-6.3,7-7.9,3.8c-1.3-2.7-1.7-5.7-1.1-8.6L100,542.6
	l1.7-10.2l1.3-7.6l1.8-10.5l5-29.8l1-5.9L124.8,472.8z"/>
<polygon class="st1" points="1,397 25,444.5 673,406.1 576,370.6 "/>
<polygon class="st2" points="1,397 0,435.8 24.5,487.2 25,444.5 "/>
<polygon class="st3" points="90.2,476.2 100.3,476.2 98.1,485.2 87.8,485.9 "/>
<polygon class="st3" points="110.9,478.6 124.8,472.8 122.8,483.6 109.9,484.5 "/>
<polygon class="st3" points="144.5,475.7 151.7,475.7 145.3,482.1 137.3,482.7 "/>
<polygon class="st3" points="519.9,451.2 525.9,457.1 517.2,457.7 513.2,453.6 "/>
<polygon class="st3" points="542.9,446.9 544.1,455.9 534.2,456.6 533.3,450.2 "/>
<polygon class="st3" points="578,453.7 567.5,454.4 566,448.3 574.1,438.7 "/>
<polygon class="st2" points="673,406.1 674,444.5 24.5,487.2 25,444.5 "/>
<polygon class="st3" points="34.6,452.6 183.9,445.9 184.3,472.3 35.5,478.6 "/>
<polygon class="st4" points="33.1,451.2 182.4,444.5 182.9,470.9 34.1,477.1 "/>
<polygon class="st3" points="193.9,445 531.4,425.3 530.9,450.2 193,471.8 "/>
<polygon class="st4" points="192.5,443.5 530,423.8 529.5,448.8 191.5,470.4 "/>
<polygon class="st3" points="537.2,424.3 665.8,416.2 666.8,440.6 538.6,449.3 "/>
<polygon class="st4" points="535.7,422.9 664.4,414.7 665.3,439.2 537.2,447.8 "/>
<rect x="100.3" y="462.7" transform="matrix(0.9997 -2.635142e-02 2.635142e-02 0.9997 -12.1745 3.045)" class="st3" width="18.2" height="1.4"/>
<rect x="100.3" y="461.3" transform="matrix(0.9997 -2.635142e-02 2.635142e-02 0.9997 -12.1365 3.0445)" class="st2" width="18.2" height="1.4"/>
<rect x="453.6" y="442.1" transform="matrix(0.9997 -2.635142e-02 2.635142e-02 0.9997 -11.5078 12.3481)" class="st3" width="18.2" height="1.4"/>
<rect x="453.6" y="440.6" transform="matrix(0.9997 -2.635142e-02 2.635142e-02 0.9997 -11.4699 12.3474)" class="st2" width="18.2" height="1.4"/>
<rect x="255.4" y="453.6" transform="matrix(0.9997 -2.635142e-02 2.635142e-02 0.9997 -11.8802 7.1277)" class="st3" width="18.2" height="1.4"/>
<rect x="255.4" y="452.2" transform="matrix(0.9997 -2.635142e-02 2.635142e-02 0.9997 -11.8423 7.1273)" class="st2" width="18.2" height="1.4"/>
<rect x="595.2" y="432.5" transform="matrix(0.9997 -2.635142e-02 2.635142e-02 0.9997 -11.2057 16.0764)" class="st3" width="18.2" height="1.4"/>
<rect x="595.2" y="431" transform="matrix(0.9997 -2.635142e-02 2.635142e-02 0.9997 -11.1677 16.0759)" class="st2" width="18.2" height="1.4"/>
<polygon class="st2" points="824.7,613.9 807.4,613 806.3,563.4 806,551.5 824.2,548.2 824.3,563.4 "/>
<polygon class="st2" points="811.3,605.3 722.5,660.5 720.5,677.3 730.1,677.8 730.1,665.8 788.2,633.1 718.1,720 718.1,733.5 
	729.7,733.5 728.7,718.6 809.8,626.4 819.9,627.4 905.4,724.3 907.3,740.7 918.8,741.2 916.9,724.3 849.2,639.9 894.3,671.1 
	895.3,684.5 904.4,685 903.4,668.7 817.5,602.4 "/>
<path class="st5" d="M699.7,510.9c8.4-10.4,15.5-21.9,21-34.1c6.1-13.5,12.8-29.1,13.3-33.8c1-8.6,25.4-25.9,52.3-26.9
	c17.5-0.6,44.8-14.3,61.7-23.8c15.9-9,33.6-14.5,51.8-16c19.8-1.5,38.4,2.4,29,25.3L803.1,553.9c0,0-107.2,18.9-113.8-11.5
	c-0.4-1.5-0.9-3-1.5-4.5C686.5,535.1,686.2,527.6,699.7,510.9z"/>
<path class="st6" d="M709.1,513.9c8.4-10.5,15.5-22.1,21.1-34.4c5.7-12.6,11.8-26.8,12.2-31.1c0.9-8.2,24.3-24.8,50.1-25.7
	c16.8-0.6,42.9-13.7,59.1-22.7c15.2-8.6,32.1-13.8,49.6-15.3c18.9-1.4,36.7,2.3,27.8,24.2l-99.7,146c0,0-123,17.5-129.5-11.4
	c-0.4-1.5-0.9-3-1.5-4.5C697.1,536.2,696.9,529.2,709.1,513.9z"/>
<path class="st3" d="M824.3,563.4c-5.8,0-11.9,0-18.1-0.1l-0.3-11.8l18.2-3.4L824.3,563.4z"/>
<g class="st7">
	<polygon points="894.3,668.2 849.2,637 854.4,643.4 894.3,671.1 895.3,684.5 904.4,685 904.2,682.1 895.3,681.6 	"/>
	<polygon points="730.1,662.9 730.1,665.8 784,635.5 788.2,630.3 	"/>
	<polygon points="718.1,730.6 718.1,733.5 729.7,733.5 729.5,730.6 	"/>
	<polygon points="730.1,674.9 720.9,674.4 720.5,677.3 730.1,677.8 	"/>
	<polygon points="907.3,737.8 905.4,721.5 819.9,624.5 809.8,623.5 728.7,715.7 728.9,718.4 809.8,626.4 819.9,627.4 905.4,724.3 
		907.3,740.7 918.8,741.2 918.5,738.2 	"/>
</g>
<linearGradient id="SVGID_1_" gradientUnits="userSpaceOnUse" x1="1119.2067" y1="52.9661" x2="1119.2067" y2="552.3341" gradientTransform="matrix(-1 0 0 -1 1869.6599 767.546)">
	<stop  offset="0" style="stop-color:#808080;stop-opacity:0.25"/>
	<stop  offset="0.54" style="stop-color:#808080;stop-opacity:0.12"/>
	<stop  offset="1" style="stop-color:#808080;stop-opacity:0.1"/>
</linearGradient>
<path class="st8" d="M500.6,630.3c15.8,12.6,25.6,0.9,25.6,0.9s26.6-18.9,27.2-21.6c0.4-1.6,0.9-3.2,1.5-4.7c0,0,4.4,0.8,4.4-1.3
	s4.5-2.8,7.2-4.5s19.4-16.3,19.4-16.3s0.6-3.2,8.2-5.6c5.4-1.7,16.9-12.4,23.2-18.6c0.4-2.5,1.7-10.2,3.1-12.5
	c0.6-0.7,1.5-1.1,2.5-1.1l0.6-2.3c1.9-7.1,3.2-14.3,4.1-21.5c1.7-15,14.4-19.7,17.6-19.7s28.8-10.9,28.8-10.9l41.5-16.9
	c0,0,25.6-8,24.7-13.5c-0.1-0.6-0.1-1.2,0.1-1.7c0.5-2.6,2.8-5.5,5-8c1.6-1.7,3.2-3.4,5-4.9l13.8-8.5l1.1-0.7
	c-4.7-7.4-14.9-17.2-14.9-17.2s3-5.6,6.5-5.6c2.3,0,15-4,23.2-6.7c-0.8-9.1-2.5-36.8,7.9-42.5l12.5-6.8c0,0-0.4,1-1.1,2.5l1.8-1
	c0,0-0.2,0.5-0.6,1.3c0.4-0.1,0.8-0.1,1.2-0.1c1.1-4,1.8-7.2,1.5-8.3c-0.8-2.6-1-20.4,6.5-29.6l-6-17.4c-0.6-1.8,0.4-3.7,2.1-4.3
	c0,0,0,0,0,0l15.5-5.2c0.5-0.2,1-0.2,1.5-0.1c1.6-0.2,3.2,0.7,3.7,2.3l4.4,12.8c1.9-0.4,3.7-0.8,5.6-1c1.3-2.4,2.9-4.6,2.7-7.3
	c-0.3-1.5-0.8-3-1.6-4.3c-2-3.9-3.4-8.1-4.2-12.4c-0.2-0.9-0.2-1.8,0-2.6c0.7-2.1,3.4-2.8,4.6-4.7c1-1.5,0.7-3.5,0.2-5.3
	c-0.8-2.8-1.9-5.4-2.5-8.2s-0.7-5.9,0.7-8.4c1.2-2,3-3.6,5-4.7c0.5-2.5,2.3-4.8,1.8-7.3c-0.3-1.5-1.5-2.7-1.7-4.2
	c-0.4-2.7,2.3-4.8,4.7-6.2l21.1-12.5c1.9-1.1,3.8-2.2,5.8-3.2c3.8-2,7.8-3.4,12-2.9c5.3,0.7,9.8,4.5,13.1,8.7s5.9,9,9.6,12.9
	c6.8,7.1,16.6,10.5,24,17c2.1,1.7,3.7,3.8,4.8,6.3c3.1,8.2-4.5,16.6-4.5,25.3c0,7.6,5.9,14,12,18.7c2.6,2,5.5,4.2,6,7.4
	c0.4,2.5-0.8,4.9-1.5,7.3c-1.4,5-1.1,10.3,0.7,15.1c4.8,3.2,8.2,5.3,8.2,5.3s19.7,16.5,30.7,20.2c0.4,0.1,0.8,0.3,1.1,0.7
	c3,1.9,11.4,7.1,12.9,9.8c1.9,3.4,14.8,16.1,6.4,20.6c-4.8,2.7-10.1,4.4-15.6,5.2c0,0-19.3,6-26.9,9.8c-4.6,2.1-9.4,3.8-14.3,5
	c0.5,5.3,2.5,10.4,5.8,14.6h0.2c0.9,1.3,2,2.4,3.2,3.5l-2.1,0.3l0.1,0.1c-5.5,0.9-11.2,1.8-16.6,0.5s-10.6-5.1-11.6-10.5
	c-1.1-5.8,2.6-12.8-1.4-17.2c-1.3-1.4-3.1-2.3-5-2.5c-2.6,3.5-22,28.1-39.5,22.7c4,10.7,11.1,29.2,12.5,29.8
	c1.9,0.8-19.3,7.5-19.3,7.5s-4.2-0.7-10.2-1.2c0,0.7,0.1,1.5,0.1,2.3c0.4,7.4,0.7,17.3-0.6,20c-0.3,0.7-0.6,1.4-0.8,2.1
	c-1.9,7.1-5.9,13.5-11.4,18.4l-1.8,1.5c-2.5,2.2-4.5,4.9-6,7.9c-3.7,7.4-10.2,13-18,15.6c-6.1,1.9-12.5,2.2-18.7,1.1
	c0,0-42.7,4.1-66.2,6s-49.1,12.8-49.1,12.8s-11.8,8.4-20.2,19.2c-0.6,0.8-1.2,1.7-1.8,2.5l3.7,6.4c0,0-17.3,12.7-29,22.1
	c0,0.6,0,1.2,0,1.7c0.6,12.6-16.1,30.2-16.1,30.2s-5.1,7.1-7.8,10.7s4.6,5.8,4.6,5.8s-12,3.4-7.2,15.9s1.3,20.8,1.3,20.8l-7,33.5
	h-14.7l2.8-23.2c-5.1-0.4-18.8,20.6-18.8,20.6s-35.7-5.4-42.1-7.3s-5.3-13.9,7-11.2c7.1,1.6,14.6-0.6,19.7-5.8c0,0,8.7-10.1,13.7-36
	c1.7-7.6,3.8-15.1,6.3-22.4c-6.8,10.3-10.5,25.4-12,26.2c-2.1,1.1-28.3,30.7-28.3,30.7l-10.3-10.1l17.7-20.6c0,0-16.1,0.2-22.8,4.7
	s-15.4,2.3-15.4,2.3s-20.1-15.9-25-21.9S484.8,617.7,500.6,630.3z"/>
<path class="st9" d="M795.5,362.9c0,0,8.6-2.6,8.2,1.9s4.5,8.6,4.5,8.6l-7.8,20.6l-17.6-6.4l5.6-17.6L795.5,362.9z"/>
<path class="st10" d="M795.5,362.9c0,0,8.6-2.6,8.2,1.9s4.5,8.6,4.5,8.6l-7.8,20.6l-17.6-6.4l5.6-17.6L795.5,362.9z"/>
<path class="st11" d="M840.5,252.4c-2.7,1.5-5.5,3.2-6.9,5.9c-1.4,2.5-1.3,5.6-0.7,8.4s1.8,5.5,2.5,8.2c0.5,1.7,0.8,3.7-0.2,5.3
	c-1.2,1.9-3.9,2.6-4.5,4.7c-0.2,0.9-0.2,1.8,0.1,2.6c0.8,4.3,2.2,8.4,4.2,12.4c0.8,1.3,1.3,2.8,1.6,4.3c0.4,4.2-3.8,7.5-4.2,11.7
	c-0.2,2.2,0.8,4.4,1.7,6.5c1,2.3,2.2,4.7,4.2,6.1c2.5,1.8,6,1.6,8.9,0.8s5.7-2.3,8.7-3c2.8-0.7,5.7-0.8,8.2-2.1
	c4.3-2.3,6-7.3,7.3-12c0.8-3.1,1.6-6.4,0.8-9.6c-0.7-2-1.5-3.9-2.6-5.7c-1.1-2.4-1.9-4.9-3.5-7s-3.6-3.7-4.2-6.1
	c-0.7-2.8,0.8-5.6,2.1-8.1c1.1-2.3,2.1-4.6,2.9-7c0.8-1.9,1.1-4,0.8-6c-0.7-4.2-5.1-6.8-9.2-7.9c-3-0.8-6.2-1.2-9.2-2.3
	c-1.3-0.5-2.5-1.4-3.9-1.5C843.7,250.7,842,251.6,840.5,252.4z"/>
<path class="st12" d="M622,550.1l34.7,4.7h0.1c0,0,34.6-41.3,35.1-41.5l39.1-13.8l26.2-7.7l3.5-17l-34.8-1.3l-11.4,1.7L673.6,492
	c0,0-25.2,10.8-28.4,10.8s-15.7,4.7-17.4,19.6c-0.8,7.2-2.2,14.4-4,21.5C622.8,547.8,622,550.1,622,550.1z"/>
<path class="st13" d="M622,550.5l34.7,4.7h0.1c0,0,34.6-41.3,35.1-41.5l39.1-13.8l26.2-7.7l3.5-17l-34.8-1.3l-11.4,1.7l-40.9,16.8
	c0,0-25.2,10.8-28.4,10.8s-15.7,4.7-17.4,19.6c-0.8,7.2-2.2,14.4-4,21.5C622.8,548.1,622,550.5,622,550.5z"/>
<path class="st3" d="M726.5,474.4l-1.7,2.8c0,0,12,6.4,11,8.9l17.4-7L726.5,474.4z"/>
<path class="st3" d="M622,550.1l34.7,4.7c2.2-8,4-13.8,4-13.8l-23.9,4.1c0,0-8.3-1.6-13-1.2C622.8,547.8,622,550.1,622,550.1z"/>
<path class="st14" d="M636.8,547.3c0,0-14.4-2.8-16.1,0s-3.2,13.3-3.2,13.3s-28.2,66.1-33.1,91.9S571,688.4,571,688.4
	c-5,5.2-12.4,7.4-19.4,5.8c-12.1-2.6-13.3,9.3-6.9,11.2s41.5,7.3,41.5,7.3s13.5-20.9,18.5-20.6l-2.8,23.2h14.4l6.9-33.5
	c0,0,3.4-8.2-1.3-20.7s7.1-15.9,7.1-15.9s-7.1-2.2-4.5-5.8s7.7-10.7,7.7-10.7s16.5-17.5,15.9-30.1s12.7-55.5,12.7-55.5L636.8,547.3z
	"/>
<path class="st3" d="M636.8,547.3c0,0-14.4-2.8-16.1,0s-3.2,13.3-3.2,13.3s-28.2,66.1-33.1,91.9S571,688.4,571,688.4
	c-5,5.2-12.4,7.4-19.4,5.8c-12.1-2.6-13.3,9.3-6.9,11.2s41.5,7.3,41.5,7.3s13.5-20.9,18.5-20.6l-2.8,23.2h14.4l6.9-33.5
	c0,0,3.4-8.2-1.3-20.7s7.1-15.9,7.1-15.9s-7.1-2.2-4.5-5.8s7.7-10.7,7.7-10.7s16.5-17.5,15.9-30.1s12.7-55.5,12.7-55.5L636.8,547.3z
	"/>
<path class="st3" d="M607.9,649.4c0,0-5,33.8-11.6,36.2S607.9,649.4,607.9,649.4z"/>
<path class="st3" d="M621.5,622.6c-0.6,0.6-16.1,20.8-22.2,20.9S621.5,622.6,621.5,622.6z"/>
<path class="st12" d="M646,541.7c0,0,17,44.3,24.7,30.7c1.2-2.2,2.6-4.3,4.2-6.3c8.3-10.8,19.9-19.1,19.9-19.1s25.2-10.8,48.4-12.7
	s65.2-6,65.2-6l5.5-4.7c0.6-30.3-60.5-44.5-60.5-44.5s-46.7,19.2-64.3,24.8s-20.5,14-20.5,14l-17.5,18.5L646,541.7z"/>
<path class="st3" d="M646,541.7c0,0,17,44.3,24.7,30.7c1.2-2.2,2.6-4.3,4.2-6.3l-2.8-5c-4-7.2-9.1-13.8-15-19.6
	c-1.9-1.9-3.9-3.6-6.1-5L646,541.7z"/>
<path class="st14" d="M666,555.9c0,0-15.7-19.2-20-17.2s-23.9,16.6-23.9,16.6s-19.7,20.6-27.2,23s-8.1,5.6-8.1,5.6
	s-16.4,14.6-19.1,16.2s-7.1,2.4-7.1,4.5s-4.3,1.3-4.3,1.3c-0.6,1.5-1.2,3.1-1.5,4.7c-0.6,2.6-26.7,21.5-26.7,21.5
	s-9.7,11.6-25.2-0.9s-11.6,4.1-6.7,10.1s24.7,21.9,24.7,21.9s8.6,2.2,15.1-2.2s22.4-4.7,22.4-4.7l-17.5,20.6l10.2,10.1
	c0,0,25.8-29.5,27.8-30.7s8.2-29,20.6-34.6c0,0,35.1-13.5,46.5-23s30.7-23.7,30.7-23.7L666,555.9z"/>
<path class="st3" d="M549.3,622.6c1.1-0.6,26,3.9,20.8,6.6S549.3,622.6,549.3,622.6z"/>
<path class="st3" d="M576.3,610.7c1.1,0.8,14.4,3.9,11,7.5S576.3,610.7,576.3,610.7z"/>
<path class="st4" d="M714.6,475.2c0,0,9,0.2,37.9,6.2s55.8,46.9,55.8,46.9c6.1,1.1,12.5,0.7,18.4-1.1c7.8-2.6,14.2-8.2,17.8-15.5
	c1.4-3,3.4-5.7,5.9-7.8l1.8-1.5c5.5-4.9,9.4-11.3,11.3-18.4c0.2-0.7,0.4-1.4,0.8-2.1c1.2-2.7,1-12.6,0.6-19.9
	c-0.2-4.8-0.6-8.5-0.6-8.5l-96.4-18.1l-5.5,3.4l-13.6,8.5c-1.8,1.5-3.4,3.1-5,4.9c-2.2,2.4-4.4,5.4-4.9,8c-0.1,0.6-0.1,1.2,0,1.8
	C739.8,467.1,714.6,475.2,714.6,475.2z"/>
<path class="st12" d="M859.4,292.3c0,0,9.3,13.1-2.2,37s49-13.8,49-13.8s-22.8-34.4-19.4-40.7S859.4,292.3,859.4,292.3z"/>
<circle class="st3" cx="868" cy="276.9" r="29.5"/>
<circle class="st12" cx="868" cy="274.7" r="29.5"/>
<path class="st3" d="M862.8,312.7c0,0-9.7,15.4,20,6.9s-23.4,58.7-23.4,58.7l-20.9-21.7l8.2-38.1L862.8,312.7z"/>
<path class="st15" d="M862.8,314.1c0,0-9.7,15.5,20,6.9s-23.4,58.7-23.4,58.7L838.5,358l8.2-38.1L862.8,314.1z"/>
<path class="st3" d="M762.3,438.6c0.9,1.3,1.8,2.8,2.5,4.2c3.4,7.5,11.6,5.6,11.6,5.6c13.5,8.2,49,6,49,6s-7.8,13.1,7.1,8.6
	c9.2-2.8,23-2.1,32.3-1.2c-0.2-4.8-0.6-8.5-0.6-8.5l-96.4-18.1L762.3,438.6z"/>
<path class="st10" d="M748.8,420.8c0,0,12.7,12.3,16.1,19.8s11.6,5.6,11.6,5.6c13.5,8.2,49,6,49,6s-7.8,13.1,7.1,8.6s42.2,0,42.2,0
	s20.9-6.7,19.1-7.5s-15-37-15-37c-0.8-2-1.1-4.1-1-6.2c0.1-2.9,1.1-5.7,3-7.9c1.9-2.2,4.3-3.9,7-5c14.6-6.4,40.4-22.4,40.4-22.4
	s65.8-9.7,54.9-13.5s-30.3-20.2-30.3-20.2s-30.7-19.4-36.6-27.7s-18.3-10.8-18.3-10.8l-17.1,12.7L849.7,343l0,0l-1.5-16.8
	c0,0-3.4-11.2-7.8-14.2s-21.2,2.9-22.4,3.3h-0.1c0,0-17.2,49.7-16.4,58.7c0.2,2.4-0.9,5.7-2.5,9.4c-1.1,2.3-2.4,4.8-3.8,7.2
	c-3.1,5.4-6.5,10.6-10.2,15.6c0,0-26.5,9-29.9,9S748.8,420.8,748.8,420.8z"/>
<polygon class="st3" points="849.7,346.2 853,361 885.4,343.4 882.3,316.9 851.2,344.5 851.2,344.5 "/>
<polygon class="st10" points="848.2,344.7 851.5,359.5 883.9,341.9 880.8,315.4 849.7,343.1 849.7,343 "/>
<path class="st3" d="M795.2,392.1c12.2,2.5,67,14,82.6,19.5c0.1-2.9,1.1-5.7,3-7.9c-15.5-7.1-63.2-27.4-81.8-18.8
	C797.9,387.3,796.6,389.7,795.2,392.1z"/>
<path class="st3" d="M795.2,389.2c12.2,2.5,67,14,82.6,19.5c0.1-2.9,1.1-5.7,3-7.9c-15.5-7.1-63.2-27.5-81.8-18.8
	C797.9,384.3,796.6,386.8,795.2,389.2z"/>
<path class="st10" d="M795.2,390.6c12.2,2.5,67,14,82.6,19.5c0.1-2.9,1.1-5.7,3-7.9c-15.5-7.1-63.2-27.5-81.8-18.8
	C797.9,385.8,796.6,388.3,795.2,390.6z"/>
<circle class="st16" cx="808.2" cy="397.6" r="3.8"/>
<circle class="st16" cx="795.2" cy="424.4" r="3.8"/>
<circle class="st16" cx="838.5" cy="405.3" r="3.8"/>
<circle class="st16" cx="823" cy="433.3" r="3.8"/>
<circle class="st16" cx="818" cy="368.1" r="3.8"/>
<path class="st3" d="M862.4,409.1c0,0,15.7,38.6,12,43.8S862.4,409.1,862.4,409.1z"/>
<path class="st3" d="M849.1,409.1c2.2-0.5-9.3,10.4-10.7,20.4s-9.3,18.4-9.3,18.4l8-19.6C837.1,428.3,846.5,409.8,849.1,409.1z"/>
<path class="st3" d="M799,405.3c-1.1,1.7-16.7,4.7-18.3,22L799,405.3z"/>
<path class="st3" d="M903.3,377.6c-1.9,1.7-23,15.9-30.5,16.2S903.3,377.6,903.3,377.6z"/>
<path class="st3" d="M869.9,385.5c0,0-3.2,4.5-6.4,4.5S869.9,385.5,869.9,385.5z"/>
<path class="st3" d="M738.9,460c13.5,0.5,58.9,1.8,65.5-0.1c0.6-0.2-40.1-2.1-49.6-3.9c-3.8-0.7-7.5-2-10.9-3.9
	C741.6,454.5,739.4,457.4,738.9,460z"/>
<path class="st3" d="M814.1,468.8c0,0,22.5,16.4,12.6,16.6S814.1,468.8,814.1,468.8z"/>
<path class="st11" d="M862.9,309.5c-0.9,2.3-0.2,2.7-0.7,4.8c-0.5,1.9-0.7,3.9-0.4,5.9c0.3,2.8-1.5,6.1-0.1,8.5
	c0.2,0.3,0.4,0.7,0.6,1.1c0.2,1.3-0.3,2.6-1.4,3.3c-0.9,0.7-2.1,1.3-2.7,2.4c-1.4,2.7,1.3,6.4,0,9.2c-0.4,0.8-1.1,1.5-1.9,2
	c-1.8,1.3-3.9,2.4-6,3.2c-1.4-2.2,0.2-5.5-1.1-7.8c-0.7-1-1.5-1.9-2.5-2.6c-2-1.9-3.1-4.8-3.6-7.7s-0.6-5.8-1.2-8.7
	c-0.9-4.7-3.1-9.1-3.6-13.9c-0.1-0.4,0-0.9,0.2-1.3c0.3-0.4,0.8-0.6,1.3-0.6c4.3-0.4,9.1,0.8,13.3,0
	C856.9,306.8,859.5,305.9,862.9,309.5z"/>
<path class="st3" d="M817.2,316.9c1.3,6,5.6,22.7,14.9,30.1c11.4,9.2,20,32.9,20,32.9l-2.6,6.2c2-0.6,3.9-1.4,5.6-2.6
	c2.6-1.9-6.2-38.9-6.2-38.9l-1.5-16.8c0,0-3.4-11.2-7.8-14.2C835.2,310.6,818.4,316.4,817.2,316.9z"/>
<path class="st10" d="M818,315.4c1.3,6,5.6,22.7,14.9,30.1c11.4,9.2,20,32.9,20,32.9l-2.6,6.2c2-0.6,3.9-1.4,5.6-2.6
	c2.6-1.9-6.2-38.9-6.2-38.9l-1.5-16.8c0,0-3.4-11.2-7.8-14.2S819.2,315,818,315.4z"/>
<path class="st17" d="M802.7,303.2l18.6-6.3c0.9-0.3,1.9,0.2,2.2,1.1l14.5,42.8c0.3,0.9-0.2,1.9-1.1,2.2l-18.6,6.3
	c-0.9,0.3-1.9-0.2-2.2-1.1l-14.5-42.8C801.4,304.4,801.9,303.5,802.7,303.2z"/>
<path class="st14" d="M801.9,303.2l18.6-6.3c0.9-0.3,1.9,0.2,2.2,1.1l14.5,42.8c0.3,0.9-0.2,1.9-1.1,2.2l-18.6,6.3
	c-0.9,0.3-1.9-0.2-2.2-1.1l-14.5-42.8C800.5,304.5,801,303.5,801.9,303.2z"/>
<circle class="st18" cx="815.4" cy="313.6" r="3.6"/>
<path class="st12" d="M791.4,386.4v1.3l14-7.2l1.4-7.1l2.5-12.3c0,0,28.4-41.7,9.5-42.2s-19,31.4-17.9,34.9
	c0.8,2.5-4.4,18.1-7.5,26.8C792.2,384.1,791.4,386.4,791.4,386.4z"/>
<path class="st3" d="M779,412.9c0,0-4.9-38.5,7.5-45.2l12.3-6.7c0,0-10.1,22.6-6,23.5s16.1-9.6,16.1-9.6v24.3L779,412.9z"/>
<path class="st3" d="M791.4,386.4v1.3l14-7.2l1.4-7.1c-3.8,3-10.4,7.8-13.2,7.2c-0.1,0-0.1,0-0.2-0.1
	C792.2,384.1,791.4,386.4,791.4,386.4z"/>
<path class="st10" d="M778.3,411.4c0,0-4.9-38.5,7.5-45.2l12.3-6.7c0,0-10.1,22.6-6,23.5s16.1-9.6,16.1-9.6v24.3L778.3,411.4z"/>
<circle class="st16" cx="848.2" cy="376.7" r="3.8"/>
<path class="st5" d="M719.8,558.7c0,0,37.2-2.9,51.1-29.8c0,0,28.3-56.2,51.4-62.4s65.8-20.2,83.5-41.8s25.2-38.2,25.2-38.2
	s4.6,17.5-9.8,38.2s-19.7,52.3-29.8,85.9s-13.9,47-32.2,49c-13.8,1.5-86.5,0.7-121.2,0C726.7,559.5,719.8,558.7,719.8,558.7z"/>
<path class="st6" d="M719.8,558.7c0,0,37.2-2.9,51.1-29.8c0,0,28.3-56.2,51.4-62.4s65.8-20.2,83.5-41.8s25.2-38.2,25.2-38.2
	s4.6,17.5-9.8,38.2s-19.7,52.3-29.8,85.9s-13.9,47-32.2,49c-13.8,1.5-86.5,0.7-121.2,0C726.7,559.5,719.8,558.7,719.8,558.7z"/>
<path class="st5" d="M729.2,558.8c0,0,35.6-2.8,48.9-28.8c0,0,27.1-54.4,49.1-60.4S890,450,907,429.1s24.1-37,24.1-37s4.4,17-9.4,37
	s-18.8,50.7-28.5,83.2s-13.3,45.5-30.7,47.4c-13.1,1.4-82.6,0.7-115.9,0C735.8,559.5,729.2,558.8,729.2,558.8z"/>
<path class="st12" d="M935.6,384.5c0,0-17.2,1.1-22.4,3.2c-2.8,1.1-9.9,2-15.9,2.7c-8.6,0.8-16.6,5.1-22,11.9
	c-4.9,6.2-7.4,13.9,2.3,19.7c19.4,11.6,43-21.3,43-21.3l20.5-3L935.6,384.5z"/>
<path class="st10" d="M927.4,383c6.7-0.5,14.2,30.7,14.2,30.7s12.3-2.6,19.8-6.4s26.5-9.7,26.5-9.7c5.4-0.8,10.6-2.6,15.3-5.2
	c8.2-4.5-4.5-17.2-6.3-20.5s-13.8-10.5-13.8-10.5l-9.3-1.9l-42.2,7.5l27.3,6.4l-3.4,1l-9.2,2.8L927.4,383z"/>
<path class="st10" d="M946.3,377.2l8.1,21.6c16.3,12.7,15-5,15-5l-13.9-19.4L946.3,377.2z"/>
<path class="st3" d="M947.7,377.9l8.1,21.6c16.3,12.7,15-5,15-5l-13.9-19.4L947.7,377.9z"/>
<circle class="st16" cx="964.1" cy="397.6" r="3.8"/>
<path class="st3" d="M842.7,259.9c-2.5-0.5-4.3-2.6-4.3-5.1c0-2.9,2.5-5.6,1.8-8.5c-0.3-1.5-1.5-2.7-1.7-4.2
	c-0.4-2.7,2.3-4.8,4.6-6.1l20.8-12.4c5-3,10.4-6,16.1-5.3c5.3,0.7,9.6,4.5,12.9,8.7s5.8,9,9.4,12.8c6.7,7.1,16.4,10.5,23.6,16.9
	c2,1.7,3.7,3.8,4.7,6.3c3,8.1-4.4,16.5-4.4,25.2c0,7.6,5.8,13.9,11.8,18.6c2.5,2,5.4,4.2,5.9,7.4c0.4,2.5-0.7,4.9-1.4,7.3
	c-3.6,12.2,4.2,25.2,14.2,33c3,2.4,6.4,4.7,7.5,8.3c1.6,5.3-2.4,10.5-5.8,14.9c-6,7.7-11,16.5-12.4,26.1s1.2,20.3,8.4,26.8
	c-5.4,0.9-11,1.7-16.3,0.5s-10.5-5.1-11.4-10.5c-1-5.8,2.5-12.8-1.4-17.2c-3-3.4-8.2-2.7-12.7-3.3c-9.5-1.5-16.7-9.4-17.4-19
	c-0.3-6.6,2.6-12.8,4.9-19s3.9-13.2,1.2-19.2c-4.4-9.7-18.8-13.7-19.4-24.3c-0.4-6.2,4.6-12.6,2-18.3c-1.7-3.8-6.1-5.5-9.4-8.1
	c-5.2-4.1-7.6-10.6-11-16.2c-2.8-4.5-6.1-8.7-9.7-12.5c-1.2-1.3-3.4-4.6-5.2-5C846.5,258.2,844.9,260.3,842.7,259.9z"/>
<path class="st11" d="M844.2,259.2c-2.5-0.5-4.3-2.6-4.3-5.1c0-2.9,2.5-5.6,1.9-8.5c-0.3-1.5-1.5-2.7-1.7-4.2
	c-0.4-2.7,2.3-4.8,4.6-6.1l20.8-12.4c4.9-3,10.4-6,16.1-5.3c5.3,0.7,9.6,4.5,12.9,8.7s5.8,9,9.4,12.8c6.7,7.1,16.4,10.5,23.6,16.9
	c2.1,1.7,3.7,3.8,4.7,6.3c3,8.1-4.4,16.6-4.4,25.2c0,7.6,5.8,13.9,11.8,18.6c2.5,2,5.4,4.2,5.9,7.4c0.4,2.5-0.7,4.9-1.4,7.3
	c-3.6,12.2,4.2,25.2,14.2,33c3,2.4,6.4,4.7,7.5,8.3c1.6,5.3-2.4,10.5-5.8,14.9c-6,7.7-11,16.5-12.5,26.1s1.2,20.3,8.4,26.8
	c-5.4,0.9-11,1.8-16.3,0.5s-10.5-5.1-11.4-10.5c-1-5.8,2.5-12.8-1.4-17.2c-3-3.4-8.2-2.7-12.7-3.3c-9.5-1.5-16.7-9.4-17.4-19
	c-0.3-6.6,2.6-12.8,4.9-19s3.9-13.2,1.2-19.2c-4.4-9.7-18.8-13.7-19.4-24.3c-0.4-6.2,4.6-12.6,2-18.3c-1.7-3.8-6.1-5.5-9.4-8.1
	c-5.2-4.1-7.6-10.6-11-16.2c-2.8-4.5-6.1-8.7-9.7-12.5c-1.2-1.3-3.4-4.6-5.2-5C848,257.4,846.4,259.5,844.2,259.2z"/>
<path class="st3" d="M842.2,245.9c-0.3-1.5-1.5-2.7-1.7-4.2c-0.4-2.7,2.3-4.8,4.6-6.1l0.5-0.3c-0.3,0.6-0.4,1.3-0.3,2
	c0.2,1.5,1.4,2.7,1.7,4.2c0.7,2.9-1.8,5.5-1.9,8.5c0,2.5,1.9,4.6,4.3,5.1c2.2,0.3,3.8-1.8,5.8-1.3c1.8,0.4,4,3.7,5.2,5
	c3.7,3.8,6.9,8,9.7,12.5c3.4,5.6,5.9,12.1,11,16.2c3.3,2.6,7.7,4.3,9.4,8.1c2.5,5.7-2.4,12-2,18.3c0.6,10.6,15,14.6,19.4,24.3
	c2.7,6,1.1,13-1.2,19.2s-5.2,12.4-4.9,19c0.7,9.6,7.9,17.5,17.4,19c4.5,0.6,9.7,0,12.7,3.3c3.9,4.4,0.3,11.4,1.4,17.2
	c1,5.4,6.1,9.3,11.4,10.5c2.7,0.6,5.5,0.8,8.3,0.5c0.9,1.2,2,2.3,3.2,3.3c-5.4,0.9-11,1.8-16.3,0.5s-10.5-5.1-11.4-10.5
	c-1-5.8,2.5-12.8-1.4-17.2c-3-3.4-8.2-2.7-12.7-3.3c-9.5-1.5-16.7-9.4-17.4-19c-0.3-6.6,2.6-12.8,4.9-19s3.9-13.2,1.2-19.2
	c-4.4-9.7-18.8-13.7-19.4-24.3c-0.4-6.2,4.6-12.6,2-18.3c-1.7-3.8-6.1-5.5-9.4-8.1c-5.2-4.1-7.6-10.6-11-16.2
	c-2.8-4.5-6.1-8.7-9.7-12.5c-1.2-1.3-3.4-4.6-5.2-5c-2-0.5-3.6,1.6-5.9,1.3c-2.5-0.5-4.3-2.6-4.3-5.1
	C840.3,251.4,842.8,248.8,842.2,245.9z"/>
<path class="st3" d="M700.4,544.8c0,0,19.4,7.4,30.5,3.4s38.4-16.1,38.4-16.1S723.2,535,700.4,544.8z"/>
<path class="st5" d="M535.1,339.4c0,0-4.6,21.4,15.8,23.9l1.3-2.4C552.2,361,536.3,346.1,535.1,339.4z"/>
<path class="st5" d="M558.7,360.8l-4.8,1l-0.5,0.1c0,0-12.7-10.3-12.5-33.2c1.7,3.4,3.7,6.6,6,9.6
	C552,344.9,557.7,353.8,558.7,360.8z"/>
<path class="st5" d="M560.3,363c-0.8,0.5-1.7,0.6-2.5,0.3c-12.2-2.9-8.1-42.6-8.1-42.6c0.7,0.3,1.4,5.4,4.2,11.9
	C558.8,344.1,564.2,360.1,560.3,363z"/>
<path class="st5" d="M587.3,339.4c0,0,0.8,21.4-19.6,23.9l-1.3-2.4C566.4,361,586.1,346.1,587.3,339.4z"/>
<path class="st5" d="M581.5,328.7c0.2,23-16.3,33.2-16.3,33.2l-0.5-0.1l-4.8-1c0.9-7,6.7-15.9,11.7-22.6
	C574.5,334.6,577.8,331.4,581.5,328.7z"/>
<path class="st5" d="M564.6,360.9c-0.7,0.9-1.7,1.6-2.7,2.1l0,0c-0.3,0.1-0.7,0.3-1,0.3c-3,0.7-4-1.5-3.9-5.1
	c0.3-6.5,4.4-17.9,8.1-26.4c2.7-6.1,7-10.8,7.7-11.1C572.8,320.8,572.6,351.7,564.6,360.9z"/>
<path class="st5" d="M561.2,306.8c0,0-13.6,48.3-1.9,55.6S564.2,311.1,561.2,306.8z"/>
<path class="st3" d="M535.1,339.4c0,0-4.6,21.4,15.8,23.9l1.3-2.4C552.2,361,536.3,346.1,535.1,339.4z"/>
<path class="st3" d="M558.7,360.8l-4.8,1l-0.5,0.1c0,0-12.7-10.3-12.5-33.2c1.7,3.4,3.7,6.6,6,9.6
	C552,344.9,557.7,353.8,558.7,360.8z"/>
<path class="st3" d="M560.3,363c-0.8,0.5-1.7,0.6-2.5,0.3c-12.2-2.9-8.1-42.6-8.1-42.6c0.7,0.3,1.4,5.4,4.2,11.9
	C558.8,344.1,564.2,360.1,560.3,363z"/>
<path class="st3" d="M587.3,339.4c0,0,0.8,21.4-19.6,23.9l-1.3-2.4C566.4,361,586.1,346.1,587.3,339.4z"/>
<path class="st3" d="M581.5,328.7c0.2,23-16.3,33.2-16.3,33.2l-0.5-0.1l-4.8-1c0.9-7,6.7-15.9,11.7-22.6
	C574.5,334.6,577.8,331.4,581.5,328.7z"/>
<path class="st3" d="M564.6,360.9c-0.7,0.9-1.7,1.6-2.7,2.1l0,0c-0.3,0.1-0.7,0.3-1,0.3c-3,0.7-4-1.5-3.9-5.1
	c0.3-6.5,4.4-17.9,8.1-26.4c2.7-6.1,7-10.8,7.7-11.1C572.8,320.8,572.6,351.7,564.6,360.9z"/>
<path class="st3" d="M561.2,306.8c0,0-13.6,48.3-1.9,55.6S564.2,311.1,561.2,306.8z"/>
<path class="st5" d="M535.1,339.4c0,0-2.7,21.4,17.7,23.9l1.3-2.4C554.1,361,536.3,346.1,535.1,339.4z"/>
<path class="st5" d="M560.6,360.8l-4.8,1l-0.5,0.1c0,0-14.6-10.3-14.4-33.2c0,0,3.7,4,8,9.6C553.9,344.9,559.6,353.8,560.6,360.8z"
	/>
<path class="st3" d="M560.6,360.8l-4.8,1c-4.5-4-6.3-14.3-6.9-23.6C553.9,344.9,559.6,353.8,560.6,360.8z"/>
<path class="st5" d="M562.2,363c-0.8,0.5-1.7,0.6-2.5,0.3c-12.2-2.9-10-42.6-10-42.6c0.7,0.3,3.3,5.4,6.1,11.9
	C560.7,344.1,566.1,360.1,562.2,363z"/>
<path class="st5" d="M587.3,339.4c0,0,2.7,21.4-17.7,23.9l-1.3-2.4C568.3,361,586.1,346.1,587.3,339.4z"/>
<path class="st5" d="M581.5,328.7c0.2,23-14.4,33.2-14.4,33.2l-0.5-0.1l-4.8-1c0.9-7,6.7-15.9,11.7-22.6
	C577.8,332.7,581.5,328.7,581.5,328.7z"/>
<path class="st3" d="M573.5,338.3c-0.6,8.7-2.2,18.2-6,22.7c-0.3,0.3-0.6,0.6-0.9,0.9l-4.8-1C562.8,353.8,568.5,344.9,573.5,338.3z"
	/>
<path class="st5" d="M566.5,360.9c-0.7,0.9-1.7,1.6-2.7,2.1l0,0c-0.3,0.1-0.7,0.3-1,0.3c-3,0.7-4-1.5-3.9-5.1
	c0.3-6.5,4.4-17.9,8.1-26.4c2.7-6.1,5.1-10.8,5.8-11.1C572.8,320.8,574.5,351.7,566.5,360.9z"/>
<path class="st3" d="M562.2,363c-0.7,0-1.4-0.2-1.9-0.6c-5.7-3.6-5.9-17-4.5-29.8C560.7,344.1,566.1,360.1,562.2,363z"/>
<path class="st3" d="M566.5,360.9c-0.7,1.4-1.5,2.2-2.7,2.1l0,0c-0.6-0.1-1.1-0.3-1.6-0.6c-1.5-1-2.6-2.5-3.2-4.2
	c0.3-6.5,4.4-17.9,8.1-26.4C568.3,343.6,568.8,356.1,566.5,360.9z"/>
<path class="st5" d="M561.2,306.8c0,0-11.7,48.3,0,55.6S564.2,311.1,561.2,306.8z"/>
<polygon class="st19" points="583.7,360 534.9,360 534.9,368.1 542.4,368.1 542.6,369 545.5,384.7 573.9,384.7 576.9,369 
	577.1,368.1 583.7,368.1 "/>
<polygon class="st3" points="583.7,360 534.9,360 534.9,368.1 542.4,368.1 542.6,369 545.5,384.7 573.9,384.7 576.9,369 
	577.1,368.1 583.7,368.1 "/>
<polygon class="st19" points="579.6,364.8 578.8,369 575.8,384.7 547.4,384.7 544.5,369 543.6,364.8 "/>
<polygon class="st3" points="579.6,364.8 578.8,369 544.5,369 543.6,364.8 "/>
<rect x="536.8" y="360" class="st19" width="48.8" height="8.1"/>
<path class="st5" d="M165.5,662.4c-1,1.3-1.7,2.8-2.3,4.3c-0.1,0.4-0.3,0.8-0.4,1.2c-0.3-0.1-0.5-0.2-0.8-0.3
	c-1.2-0.3-2.4-0.4-3.6-0.3c0-0.5,0.1-1,0.1-1.5c0.1-5.3-0.5-12.6-5.5-9.5c-4.8,3-1.4,8,1.7,11.2l0.8,0.8c-2.8,2-3.4,6.7-3.9,11.6
	s-4.6,10.3-7.4,13.3l-0.8,0.8c-2.3-1.8-5.2-2.5-8-2.1l-0.4-1.3c-2.2-8.1-6.9-22.1-12.8-25.2c0.2-0.3,0.5-0.6,0.8-1
	c2.5-3.3,5.4-8.2,1.2-9.4s-4.6,4.2-4.3,8.4c0,0.5,0,1,0.1,1.5c-1.7,0.1-3.3,0.9-4.4,2.1l-0.6-0.8c-3.4-4-9.6-10.4-11.5-5.6
	c-1.8,4.5,3.7,10.3,7.6,13.7l0.2,0.2c-2.6,10.5,8.7,19.1,14.8,22.8l0.8,0.5c-8.4,9.9-13.6,28.5-13.6,28.5l23.5,4.2
	c0,0,15.6-13.5,13.6-26.1c0.1,0,0.1,0,0.2,0c15.6-3.1,19.1-19.7,16.7-29.6l0.3-0.1c2.8-1.2,5.3-3,7.2-5.5
	C179.2,663.3,170,656.5,165.5,662.4z"/>
<path class="st3" d="M165.5,662.4c-1,1.3-1.7,2.8-2.3,4.3c-0.1,0.4-0.3,0.8-0.4,1.2c-0.3-0.1-0.5-0.2-0.8-0.3
	c-1.2-0.3-2.4-0.4-3.6-0.3c0-0.5,0.1-1,0.1-1.5c0.1-5.3-0.5-12.6-5.5-9.5c-4.8,3-1.4,8,1.7,11.2l0.8,0.8c-2.8,2-3.4,6.7-3.9,11.6
	s-4.6,10.3-7.4,13.3l-0.8,0.8c-2.3-1.8-5.2-2.5-8-2.1l-0.4-1.3c-2.2-8.1-6.9-22.1-12.8-25.2c0.2-0.3,0.5-0.6,0.8-1
	c2.5-3.3,5.4-8.2,1.2-9.4s-4.6,4.2-4.3,8.4c0,0.5,0,1,0.1,1.5c-1.7,0.1-3.3,0.9-4.4,2.1l-0.6-0.8c-3.4-4-9.6-10.4-11.5-5.6
	c-1.8,4.5,3.7,10.3,7.6,13.7l0.2,0.2c-2.6,10.5,8.7,19.1,14.8,22.8l0.8,0.5c-8.4,9.9-13.6,28.5-13.6,28.5l23.5,4.2
	c0,0,15.6-13.5,13.6-26.1c0.1,0,0.1,0,0.2,0c15.6-3.1,19.1-19.7,16.7-29.6l0.3-0.1c2.8-1.2,5.3-3,7.2-5.5
	C179.2,663.3,170,656.5,165.5,662.4z"/>
<path class="st5" d="M118.7,669.2l-2.8,8.1c0,0-1.5-1.1-3.4-2.8c-3.9-3.4-9.4-9.2-7.6-13.7c1.9-4.8,8.1,1.5,11.5,5.6
	C117.8,668,118.7,669.2,118.7,669.2z"/>
<path class="st5" d="M124.5,664.6c-0.8,1.1-1.7,2.2-2.7,3.2c-0.2-1.4-0.4-2.8-0.5-4.2c-0.2-4.1,0.2-9.6,4.3-8.4
	S127,661.3,124.5,664.6z"/>
<path class="st5" d="M160,665.9c-0.1,2.7-0.4,4.8-0.4,4.8c-1.2-0.9-2.4-2-3.4-3.1c-3.1-3.2-6.6-8.2-1.7-11.2
	C159.5,653.3,160.1,660.6,160,665.9z"/>
<path class="st5" d="M176.2,669.3c-1.9,2.4-4.4,4.3-7.2,5.5c-0.8,0.3-1.6,0.6-2.4,0.9l-3.3-4.6c0.3-1.5,0.8-3,1.3-4.4
	c0.5-1.5,1.3-3,2.3-4.3C171.4,656.5,180.6,663.3,176.2,669.3z"/>
<path class="st3" d="M116.4,666.4c1.4,1.6,2.3,2.8,2.3,2.8l-2.8,8.1c0,0-1.5-1.1-3.4-2.8c0.4-2.6,1.5-5,3.1-7.1
	C115.9,667,116.2,666.7,116.4,666.4z"/>
<path class="st3" d="M124.5,664.6c-0.8,1.1-1.7,2.2-2.7,3.2c-0.2-1.4-0.4-2.8-0.5-4.2C122.5,663.5,123.6,663.9,124.5,664.6z"/>
<path class="st5" d="M138,696.6l-6.8,3c-1.2-0.6-2.5-1.3-3.6-2.1c-7.2-4.4-21.6-15.5-12-28.7s17.8,10.4,21,21.9
	C137.5,694.2,138,696.6,138,696.6z"/>
<path class="st3" d="M156.2,667.6c1-1,2.4-1.6,3.8-1.7c-0.1,2.7-0.4,4.8-0.4,4.8C158.4,669.7,157.3,668.7,156.2,667.6z"/>
<path class="st3" d="M169,674.8c-0.8,0.3-1.6,0.6-2.4,0.9l-3.3-4.6c0.3-1.5,0.8-3,1.3-4.4C166.8,667.9,168.3,671,169,674.8z"/>
<path class="st5" d="M152,704.5c-0.4,0.1-0.8,0.2-1.1,0.2c-22.9,3.5-7.6-8.9-7.6-8.9s1-1,2.4-2.5c2.8-3.1,6.9-8.4,7.4-13.3
	c0.7-7.4,1.6-14.4,10.3-12.4C172.1,669.7,173.7,700.2,152,704.5z"/>
<rect x="107.8" y="761.6" class="st14" width="43.8" height="11.5"/>
<rect x="100.8" y="724.2" class="st14" width="57.2" height="40.2"/>
<rect x="107.8" y="761.6" class="st3" width="43.8" height="11.5"/>
<rect x="100.8" y="724.2" class="st3" width="57.2" height="40.2"/>
<rect x="110.7" y="761.6" class="st14" width="43.8" height="11.5"/>
<path class="st3" d="M136.6,690.8c1,3.4,1.5,5.8,1.5,5.8l-6.8,3c-1.2-0.6-2.5-1.3-3.6-2.1C130.2,694.1,133.2,691.6,136.6,690.8z"/>
<path class="st3" d="M152,704.5c-0.4,0.1-0.8,0.2-1.1,0.2c-22.9,3.5-7.6-8.9-7.6-8.9s1-1,2.4-2.5C150,696.8,151.8,700.6,152,704.5z"
	/>
<path class="st5" d="M114.8,726.5c0,0,12.8-46,30.8-31.8s-7.3,36-7.3,36L114.8,726.5z"/>
<circle class="st3" cx="121.2" cy="676" r="1.4"/>
<circle class="st3" cx="121.1" cy="682.8" r="1.4"/>
<circle class="st3" cx="162.9" cy="677.4" r="1.4"/>
<circle class="st3" cx="129.3" cy="711.8" r="1.4"/>
<circle class="st3" cx="159.9" cy="688.5" r="1.4"/>
<circle class="st3" cx="145" cy="703.4" r="1.4"/>
<circle class="st3" cx="126.2" cy="678.9" r="1.4"/>
<circle class="st3" cx="158.9" cy="681.7" r="1.4"/>
<circle class="st3" cx="154" cy="692.8" r="1.4"/>
<circle class="st3" cx="138.9" cy="710.7" r="1.4"/>
<circle class="st3" cx="135.8" cy="703.7" r="1.4"/>
<circle class="st3" cx="128.3" cy="687.7" r="1.4"/>
<rect x="110.7" y="761.6" class="st3" width="43.8" height="4.2"/>
<rect x="103.7" y="724.2" class="st14" width="57.2" height="40.2"/>
<circle class="st3" cx="140.8" cy="717.2" r="1.4"/>
<circle class="st3" cx="132.1" cy="719" r="1.4"/>
<path class="st20" d="M631.2,396.7c0,4.3-9.3,9.5-20.8,9.5s-20.8-5.1-20.8-9.5s9.3-6.3,20.8-6.3S631.2,392.4,631.2,396.7z"/>
<path class="st3" d="M631.2,396.7c0,4.3-9.3,9.5-20.8,9.5s-20.8-5.1-20.8-9.5s9.3-6.3,20.8-6.3S631.2,392.4,631.2,396.7z"/>
<ellipse class="st20" cx="610.3" cy="396.7" rx="20.8" ry="7.9"/>
<ellipse class="st3" cx="610.3" cy="396.7" rx="11.8" ry="4.5"/>
<path class="st10" d="M627.4,387.3c-2,5.2-5.1,6.7-7.5,7c-1.2,0.2-2.5,0-3.6-0.4l1.4-3.1c0.9,0.3,1.9,0.3,2.8,0
	c1.3-0.4,2.7-1.5,3.7-4c1.5-3.9-0.4-4.5-1.7-4.5c-0.3,0-0.5,0-0.8,0.1l1.1-2.4c0.4-0.1,0.8-0.2,1.1-0.2
	C626,379.6,630.2,380,627.4,387.3z"/>
<path class="st21" d="M618.2,398c-8.1,4.2-16.1,0-16.1,0l0.1-1.2l0.1-0.9l15.7-0.3l0.1,1.4L618.2,398z"/>
<path class="st3" d="M620.4,390.8c-0.1,1.2-0.3,2.3-0.6,3.5c-1.2,0.2-2.5,0-3.6-0.4l1.4-3.1C618.6,391.1,619.5,391.1,620.4,390.8z"
	/>
<path class="st3" d="M623.8,379.8c-0.1,0.3-0.3,0.6-0.4,0.9l-0.1,0.2c-0.3,0.5-0.6,1-0.9,1.5c-0.3,0-0.5,0-0.8,0.1l1.1-2.4
	C623.1,379.9,623.5,379.8,623.8,379.8z"/>
<path class="st3" d="M618.1,397.1c-2.8,1.5-13.2,1.9-15.9-0.2l0.1-0.9l15.7-0.3L618.1,397.1z"/>
<path class="st10" d="M623.1,380.7l-0.1,0.2c-1.5,2.3-2.5,4.9-2.6,7.6c-0.5,6.8-1.5,7.4-1.6,7.7c-0.8,2-14.8,2.9-16.9,0
	c-1.7-2.4-3.4-7.5-2.7-10.3c0.4-1.5-0.5-3.2-1.4-4.5c-1.1-1.6-0.8-3.7,0.8-4.8c0.1,0,0.1-0.1,0.2-0.1c4-2.5,11-2.7,11-2.7
	c6-0.5,9.8,0.7,12.2,2l0.3,0.2C623.8,377,624.2,379.1,623.1,380.7C623.1,380.7,623.1,380.7,623.1,380.7L623.1,380.7z"/>
<ellipse class="st3" cx="610.1" cy="380" rx="10.6" ry="2.5"/>
<ellipse class="st22" cx="610.1" cy="380.3" rx="10.6" ry="2.5"/>
<path class="st6" d="M612.3,378.7c0,0-7.6,0.2-7.4,3C607.1,380.2,609.7,379.2,612.3,378.7z"/>
<path class="st6" d="M614.5,379.4c0,0-4.5,0-3.8,2.3c0,0,1.1-0.2,0.9-0.8s2.9-1.2,2.9-1.2L614.5,379.4z"/>
<path class="st23" d="M598.3,378.7c0,0-0.3,4.7,11.6,4.4s11.9-3.4,12-4.4h-0.7c0,0-0.2,3.8-11.1,3.7s-11.3-3.7-11.3-3.7H598.3z"/>
<path class="st3" d="M623.6,378l-7.2,3.8c-0.3,0.2-0.6,0.1-0.8-0.2l-0.1-0.1c-0.3-0.4-0.2-0.9,0.1-1.3c0,0,0,0,0.1,0l6.6-4.2
	C622.9,376.5,623.4,377.2,623.6,378z"/>
<path class="st20" d="M615.7,380l18.7-11.8c0.4-0.3,0.9-0.4,1.4-0.5c0.9,0,2.3,0.1,1.8,1.7c-0.2,0.7-0.7,1.4-1.4,1.7l-19.7,10.5
	c-0.3,0.2-0.6,0.1-0.8-0.2l-0.1-0.1C615.2,380.9,615.2,380.3,615.7,380C615.6,380,615.6,380,615.7,380z"/>
<path class="st3" d="M615.7,380l18.7-11.8c0.4-0.3,0.9-0.4,1.4-0.5c0.9,0,2.3,0.1,1.8,1.7c-0.2,0.7-0.7,1.4-1.4,1.7l-19.7,10.5
	c-0.3,0.2-0.6,0.1-0.8-0.2l-0.1-0.1C615.2,380.9,615.2,380.3,615.7,380C615.6,380,615.6,380,615.7,380z"/>
<path class="st20" d="M615.7,379.8l18.7-11.8c0.4-0.3,0.9-0.4,1.4-0.5c0.9,0,2.3,0.1,1.8,1.7c-0.2,0.7-0.7,1.4-1.4,1.7l-19.7,10.5
	c-0.3,0.2-0.6,0.1-0.8-0.2l-0.1-0.1C615.2,380.7,615.2,380.2,615.7,379.8C615.6,379.8,615.6,379.8,615.7,379.8z"/>
<path class="st3" d="M614.6,380.1c0,0,2-0.4,1.7,0.1s0.9,1.2,0.9,1.2s-2.1,0.5-2.4,0.2S614.6,380.1,614.6,380.1z"/>
<path class="st22" d="M614.5,380.3c0,0,2-0.4,1.7,0.1s0.9,1.2,0.9,1.2s-2.1,0.5-2.4,0.2S614.5,380.3,614.5,380.3z"/>
<path class="st24" d="M611.3,359.5c-0.9,0.9-1.5,2.1-1.8,3.3c-0.1,1.2-0.1,2.3,0.1,3.5c0.1,0.8,0.2,1.6,0.4,2.3
	c0.1,0.4,0.4,0.9,0.6,0.6c0-1.1-0.2-2.1-0.2-3.2c0.1-1.1,0.4-2.2,1-3.2c0.5-0.9,1-1.8,1.4-2.8c0.2-0.5,0.7-4.7-0.1-4
	c-0.2,0.1-0.3,1.5-0.5,1.9C612,358.5,611.7,359,611.3,359.5z"/>
<path class="st24" d="M611.7,366.5c0.1,0.4,0.4,0.7,0.5,1.1c0.1,0.2,0.1,0.5,0.1,0.7c0.2,1.2,0,2.4-0.5,3.5c0.7-0.4,1.2-1,1.3-1.8
	c0.1-0.4,0.2-0.8,0.2-1.2c0-0.4,0-0.8,0-1.2c0-0.6,0.2-2.1-0.5-2.4S611.7,365.9,611.7,366.5z"/>
<path class="st3" d="M599.3,385c0.9,1,2.1,1.6,3.4,1.5c0,0-2.4,0.4-3.6-0.4L599.3,385z"/>
<polygon class="st17" points="391.6,341.1 391.6,389.3 341.7,390.7 341.7,342.5 "/>
<polygon class="st3" points="391.4,383.2 391.6,390.7 341.7,390.7 341.6,386.1 "/>
<path class="st17" d="M406.9,391.6l-77.7,2.9l0,0c0-4.2,3.4-7.6,7.6-7.6l62.5-2.9C403.5,384,406.9,387.4,406.9,391.6L406.9,391.6z"
	/>
<image style="display:none;overflow:visible;" width="547" height="304" xlink:href="2x/Asset 5@2x.png"  transform="matrix(0.5059 0 0 0.5059 228.1702 185.655)">
</image>
<image style="overflow:visible;" width="819" height="456" xlink:href="3x/Asset 4@3x.png"  transform="matrix(0.3411 0 0 0.3411 226.9648 182.33)">
</image>
<path class="st17" d="M505.1,165.1l-275.4,8.6c0,0,0,0,0,0c-2.7,0-4.8,2.2-4.8,4.8v165.5c0,0,0,0,0,0c0,2.7,2.2,4.8,4.8,4.8
	l275.4-8.6c0,0,0,0,0.1,0c2.7,0,4.8-2.2,4.8-4.9V170c0,0,0,0,0,0C510,167.3,507.8,165.1,505.1,165.1z M503.4,328.6l-272.5,8.6v-143
	l272.5-8.7V328.6z"/>
<ellipse class="st4" cx="366.6" cy="180.1" rx="2.4" ry="2.4"/>
<polygon class="st3" points="391.6,348.5 341.8,349.9 341.8,349 391.6,347.5 "/>
<polygon class="st25" points="503.5,190.3 230.9,198.9 230.9,194 503.5,185.3 "/>
<polygon class="st17" points="80.7,386.7 83.4,391.5 169.6,373.2 166.2,367.8 "/>
<path class="st17" d="M70.4,391.4l-13.1-77.5c-0.2-1.3,0.7-2.6,2-2.8c0,0,0.1,0,0.1,0l99-10.6c1.3-0.1,2.5,0.8,2.7,2.1l9.3,67.8
	L70.4,391.4z"/>
<path class="st3" d="M70.4,391.4l-13.1-77.5c-0.2-1.3,0.7-2.6,2-2.8c0,0,0.1,0,0.1,0l99-10.6c1.3-0.1,2.5,0.8,2.7,2.1l9.3,67.8
	L70.4,391.4z"/>
<image style="overflow:visible;" width="302" height="231" xlink:href="3x/Asset 7@3x.png"  transform="matrix(0.3358 0 0 0.3358 65.0649 305.8664)">
</image>
<path class="st17" d="M162.7,302.6c-0.2-1.3-1.4-2.3-2.7-2.1l-99,10.6c0,0-0.1,0-0.1,0c-1.4,0.2-2.3,1.5-2,2.9l13.1,77.5L172,370.5
	L162.7,302.6z M65.7,317.4l91.9-11.1l8.3,58.5l-89.5,18.4L65.7,317.4z"/>
<path class="st26" d="M82.9,390l-0.6-1.3l-11.9,2.6l30.2,46.1c0.9,1.4,2.7,2.1,4.4,1.6l106-30.8c2.1-0.6,3.3-2.8,2.7-4.8
	c-0.2-0.8-0.7-1.5-1.4-2l-41.1-31.1l-8.6,2l0.4,0.9L82.9,390z"/>
<path class="st3" d="M82.9,390l-0.6-1.3l-11.9,2.6l30.2,46.1c0.9,1.4,2.7,2.1,4.4,1.6l106-30.8c2.1-0.6,3.3-2.8,2.7-4.8
	c-0.2-0.8-0.7-1.5-1.4-2l-41.1-31.1l-8.6,2l0.4,0.9L82.9,390z"/>
<path class="st26" d="M84.4,390l-0.6-1.3l-11.9,2.6l30.2,46.1c0.9,1.4,2.7,2.1,4.4,1.6l106-30.8c2.1-0.6,3.3-2.8,2.7-4.8
	c-0.2-0.8-0.7-1.5-1.4-2l-41.1-31.1l-8.6,2l0.4,0.9L84.4,390z"/>
<path class="st3" d="M131.7,408.9l34.1-8.9c0.2-0.1,0.4,0,0.6,0.1l15.1,13.7c0.3,0.2,0.3,0.7,0,0.9c-0.1,0.1-0.2,0.2-0.3,0.2
	l-36,10.6c-0.3,0.1-0.5,0-0.7-0.2L131.3,410c-0.2-0.3-0.2-0.7,0.1-0.9C131.5,409,131.6,408.9,131.7,408.9z"/>
<path class="st18" d="M132.4,408.2l34.1-8.9c0.2-0.1,0.4,0,0.6,0.1l15.1,13.7c0.3,0.2,0.3,0.7,0,0.9c-0.1,0.1-0.2,0.2-0.3,0.2
	l-36,10.6c-0.3,0.1-0.5,0-0.7-0.2l-13.2-15.4c-0.3-0.2-0.3-0.7,0-0.9C132.2,408.3,132.3,408.2,132.4,408.2z"/>
<g class="st7">
	<path d="M84.4,396.4l1.5,2.5c0.1,0.1,0.2,0.2,0.3,0.1l5.2-1.1c0.2,0,0.3-0.2,0.2-0.4c0,0,0-0.1,0-0.1l-1.7-2.4
		c-0.1-0.1-0.2-0.1-0.3-0.1l-5,1.1C84.5,396.1,84.4,396.2,84.4,396.4C84.4,396.4,84.4,396.4,84.4,396.4z"/>
	<path d="M91.2,395l1.5,2.5c0.1,0.1,0.2,0.2,0.3,0.1l5.2-1.1c0.2,0,0.3-0.2,0.2-0.4c0,0,0-0.1,0-0.1l-1.7-2.4
		c-0.1-0.1-0.2-0.1-0.3-0.1l-5,1.1C91.2,394.6,91.1,394.8,91.2,395C91.2,395,91.2,395,91.2,395z"/>
	<path d="M97.7,393.6l1.5,2.5c0.1,0.1,0.2,0.2,0.3,0.1l5.2-1.1c0.2,0,0.3-0.2,0.2-0.4c0,0,0-0.1,0-0.1l-1.7-2.3
		c-0.1-0.1-0.2-0.1-0.3-0.1l-5,1.1C97.8,393.3,97.7,393.5,97.7,393.6C97.7,393.6,97.7,393.6,97.7,393.6z"/>
	<path d="M104.2,392.3l1.5,2.4c0.1,0.1,0.2,0.2,0.3,0.1l5.1-1.1c0.2,0,0.3-0.2,0.2-0.4c0,0,0-0.1,0-0.1l-1.7-2.4
		c-0.1-0.1-0.2-0.1-0.3-0.1l-4.9,1.1C104.2,391.8,104.1,392,104.2,392.3C104.2,392.2,104.2,392.2,104.2,392.3z"/>
	<path d="M103.7,396l1.5,2.5c0.1,0.1,0.2,0.2,0.3,0.1l5.2-1.1c0.2,0,0.3-0.2,0.2-0.3c0,0,0-0.1,0-0.1l-1.7-2.4
		c-0.1-0.1-0.2-0.1-0.3-0.1l-5,1.1C103.7,395.6,103.6,395.8,103.7,396C103.6,395.9,103.6,396,103.7,396z"/>
	<path d="M97,397.4l1.5,2.5c0.1,0.1,0.2,0.2,0.3,0.1l5.2-1.1c0.2,0,0.3-0.2,0.2-0.4c0,0,0-0.1,0-0.1l-1.7-2.4
		c-0.1-0.1-0.2-0.1-0.3-0.1l-5,1.1C97,397,96.9,397.2,97,397.4C96.9,397.3,97,397.4,97,397.4z"/>
	<path d="M101.3,400.4l1.5,2.5c0.1,0.1,0.2,0.2,0.3,0.1l5.2-1.1c0.2,0,0.3-0.2,0.2-0.4c0,0,0-0.1,0-0.1l-1.7-2.4
		c-0.1-0.1-0.2-0.1-0.3-0.1l-5,1.1C101.3,400,101.2,400.2,101.3,400.4C101.3,400.4,101.3,400.4,101.3,400.4z"/>
	<path d="M107.5,403.1l1.5,2.5c0.1,0.1,0.2,0.2,0.3,0.1l5.2-1.1c0.2,0,0.3-0.2,0.2-0.4c0,0,0-0.1,0-0.1l-1.7-2.4
		c-0.1-0.1-0.2-0.1-0.3-0.1l-5,1.1C107.5,402.7,107.4,402.8,107.5,403.1C107.4,403,107.5,403,107.5,403.1z"/>
	<path d="M108.5,407.3l2.5,3.1c0.1,0.1,0.2,0.1,0.3,0.1l5.2-1.4c0.2,0,0.2-0.2,0.2-0.4c0,0,0-0.1-0.1-0.1l-2.6-3.1
		c-0.1-0.1-0.2-0.1-0.3-0.1l-5.1,1.4c-0.2,0-0.3,0.2-0.2,0.4C108.5,407.3,108.5,407.3,108.5,407.3z"/>
	<path d="M115.3,405.6l2.5,3.2c0.1,0.1,0.2,0.1,0.3,0.1l6.8-1.9c0.2,0,0.2-0.2,0.2-0.4c0,0,0-0.1-0.1-0.1l-2.6-3.1
		c-0.1-0.1-0.2-0.1-0.3-0.1l-6.8,1.8C115.3,405.2,115.2,405.4,115.3,405.6C115.3,405.6,115.3,405.6,115.3,405.6z"/>
	<path d="M101.9,409l2.5,3.1c0.1,0.1,0.2,0.1,0.3,0.1l5.2-1.4c0.2,0,0.2-0.2,0.2-0.4c0,0,0-0.1-0.1-0.1l-2.5-3.1
		c-0.1-0.1-0.2-0.1-0.3-0.1l-5.1,1.4C101.9,408.6,101.8,408.8,101.9,409C101.9,408.9,101.9,409,101.9,409z"/>
	<path d="M94.9,410.8l2.5,3.1c0.1,0.1,0.2,0.1,0.3,0.1l5.2-1.4c0.2,0,0.3-0.2,0.2-0.4c0,0,0-0.1,0-0.1l-2.6-3.1
		c-0.1-0.1-0.2-0.1-0.3-0.1l-5.1,1.4c-0.2,0-0.2,0.2-0.2,0.4C94.8,410.7,94.8,410.8,94.9,410.8z"/>
	<path d="M110.6,390.7l1.5,2.4c0.1,0.1,0.2,0.2,0.3,0.1l5.1-1.1c0.2,0,0.3-0.2,0.2-0.4c0,0,0-0.1,0-0.1l-1.7-2.4
		c-0.1-0.1-0.2-0.1-0.3-0.1l-5,1.1c-0.2,0-0.3,0.2-0.2,0.4C110.6,390.6,110.6,390.7,110.6,390.7z"/>
	<path d="M110.2,394.5l1.5,2.4c0.1,0.1,0.2,0.2,0.3,0.1l5.1-1.1c0.2,0,0.3-0.2,0.2-0.4c0,0,0-0.1,0-0.1l-1.7-2.4
		c-0.1-0.1-0.2-0.1-0.3-0.1l-5,1.1C110.2,394.1,110.1,394.3,110.2,394.5C110.2,394.4,110.2,394.5,110.2,394.5z"/>
	<path d="M116.9,389.3l1.5,2.4c0.1,0.1,0.2,0.2,0.3,0.1l5.1-1.1c0.2,0,0.3-0.2,0.2-0.4c0,0,0-0.1,0-0.1l-1.7-2.4
		c-0.1-0.1-0.2-0.1-0.3-0.1l-4.9,1.1c-0.2,0-0.3,0.2-0.2,0.4C116.9,389.2,116.9,389.2,116.9,389.3z"/>
	<path d="M135.2,385.3l2.1,2.3c0.1,0.1,0.2,0.1,0.2,0.1l4.6-1.1c0.1,0,0.2-0.2,0.2-0.3c0-0.1,0-0.1-0.1-0.1l-2.4-2.3
		c-0.1-0.1-0.1-0.1-0.2-0.1l-4.3,1.1c-0.1,0-0.2,0.2-0.2,0.3C135.2,385.2,135.2,385.2,135.2,385.3z"/>
	<path d="M141.1,383.9l2.1,2.3c0.1,0.1,0.2,0.1,0.2,0.1l4.6-1c0.1,0,0.2-0.2,0.2-0.3c0-0.1,0-0.1-0.1-0.1l-2.4-2.3
		c-0.1-0.1-0.1-0.1-0.2-0.1l-4.3,1.1c-0.1,0-0.2,0.2-0.2,0.3C141.1,383.9,141.1,383.9,141.1,383.9z"/>
	<path d="M135.4,388.9l2.1,2.3c0.1,0.1,0.2,0.1,0.2,0.1l4.6-1c0.1,0,0.2-0.2,0.2-0.3c0-0.1,0-0.1-0.1-0.1l-2.4-2.3
		c-0.1-0.1-0.2-0.1-0.2-0.1l-4.3,1.1C135.4,388.6,135.3,388.8,135.4,388.9C135.4,388.9,135.4,388.9,135.4,388.9z"/>
	<path d="M129.3,390.3l2,2.2c0.1,0.1,0.2,0.1,0.3,0.1l4.4-1c0.2,0,0.3-0.2,0.2-0.4c0-0.1,0-0.1-0.1-0.2l-2.3-2.2
		c-0.1-0.1-0.2-0.1-0.3-0.1l-4.2,1c-0.2,0.1-0.2,0.2-0.2,0.4C129.3,390.3,129.3,390.3,129.3,390.3z"/>
	<path d="M133.9,397.1l2,2.2c0.1,0.1,0.2,0.1,0.3,0.1l4.4-1c0.2,0,0.3-0.2,0.2-0.4c0-0.1,0-0.1-0.1-0.2l-2.3-2.2
		c-0.1-0.1-0.2-0.1-0.3-0.1l-4.2,1c-0.2,0.1-0.2,0.2-0.2,0.4C133.9,397.1,133.9,397.1,133.9,397.1z"/>
	<path d="M127.7,398.6l2,2.2c0.1,0.1,0.2,0.1,0.3,0.1l4.4-1c0.2,0,0.3-0.2,0.2-0.4c0-0.1,0-0.1-0.1-0.2l-2.2-2.2
		c-0.1-0.1-0.2-0.1-0.3-0.1l-4.2,1c-0.2,0-0.3,0.1-0.3,0.3C127.6,398.4,127.6,398.5,127.7,398.6z"/>
	<path d="M121.3,400.1l2,2.2c0.1,0.1,0.2,0.1,0.3,0.1l4.4-1c0.2,0,0.3-0.2,0.2-0.4c0-0.1,0-0.1-0.1-0.1l-2.3-2.2
		c-0.1-0.1-0.2-0.1-0.3-0.1l-4.2,1c-0.2,0.1-0.3,0.2-0.2,0.4C121.3,400.1,121.3,400.1,121.3,400.1z"/>
	<path d="M114.6,401.5l2.1,2.2c0.1,0.1,0.2,0.1,0.3,0.1l4.5-1c0.2,0,0.3-0.2,0.2-0.3c0-0.1,0-0.1-0.1-0.2l-2.3-2.2
		c-0.1-0.1-0.2-0.1-0.3-0.1l-4.2,1c-0.2,0-0.3,0.2-0.2,0.3C114.5,401.4,114.5,401.4,114.6,401.5z"/>
	<path d="M127.6,394.6l2,2.2c0.1,0.1,0.2,0.1,0.3,0.1l4.4-1c0.2,0,0.3-0.2,0.2-0.4c0-0.1,0-0.1-0.1-0.2l-2.3-2.2
		c-0.1-0.1-0.2-0.1-0.3-0.1l-4.2,1c-0.2,0.1-0.2,0.2-0.2,0.4C127.5,394.6,127.6,394.6,127.6,394.6z"/>
	<path d="M121.5,396l2,2.1c0.1,0.1,0.2,0.1,0.3,0.1l4.4-1c0.2,0,0.3-0.2,0.2-0.4c0-0.1,0-0.1-0.1-0.2l-2.3-2.2
		c-0.1-0.1-0.2-0.1-0.3-0.1l-4.2,1c-0.2,0.1-0.2,0.2-0.2,0.4C121.4,396,121.5,396,121.5,396z"/>
	<path d="M114.9,397.4l2,2.2c0.1,0.1,0.2,0.1,0.3,0.1l4.4-1c0.2,0,0.3-0.2,0.2-0.4c0-0.1,0-0.1-0.1-0.1l-2.3-2.2
		c-0.1-0.1-0.2-0.1-0.3-0.1l-4.2,1c-0.2,0-0.3,0.2-0.2,0.4C114.9,397.3,114.9,397.4,114.9,397.4z"/>
	<path d="M108.2,399l2.1,2.2c0.1,0.1,0.2,0.1,0.3,0.1l4.5-1c0.2,0,0.3-0.2,0.2-0.3c0-0.1,0-0.1-0.1-0.2l-2.3-2.2
		c-0.1-0.1-0.2-0.1-0.3-0.1l-4.2,1c-0.2,0-0.3,0.2-0.2,0.4C108.2,398.9,108.2,399,108.2,399z"/>
	<path d="M133.9,393.1l2,2.2c0.1,0.1,0.2,0.1,0.3,0.1l4.4-1c0.2,0,0.3-0.2,0.2-0.4c0-0.1,0-0.1-0.1-0.2l-2.3-2.2
		c-0.1-0.1-0.2-0.1-0.3-0.1l-4.2,1c-0.2,0.1-0.3,0.2-0.2,0.4C133.8,393.1,133.9,393.1,133.9,393.1z"/>
	<path d="M123.2,391.9l2,2.2c0.1,0.1,0.2,0.1,0.3,0.1l4.4-1c0.2,0,0.3-0.2,0.2-0.4c0-0.1,0-0.1-0.1-0.2l-2.3-2.2
		c-0.1-0.1-0.2-0.1-0.3-0.1l-4.2,1c-0.2,0-0.3,0.2-0.2,0.4C123.2,391.8,123.2,391.9,123.2,391.9z"/>
	<path d="M146.8,382.5l2.2,2.4c0,0,0.1,0.1,0.2,0.1l4.7-1.1c0.1,0,0.2-0.1,0.1-0.2c0,0,0-0.1-0.1-0.1l-2.5-2.4c0,0-0.1-0.1-0.2,0
		l-4.4,1.1c-0.1,0-0.2,0.1-0.1,0.2C146.7,382.4,146.8,382.5,146.8,382.5z"/>
	<path d="M152.5,381.3l2.2,2.4c0,0.1,0.1,0.1,0.2,0.1l4.7-1.1c0.1,0,0.2-0.1,0.1-0.2c0,0,0-0.1-0.1-0.1l-2.5-2.4c-0.1,0-0.1,0-0.2,0
		l-4.4,1.1C152.5,381,152.4,381.1,152.5,381.3C152.5,381.2,152.5,381.3,152.5,381.3z"/>
	<path d="M158.3,379.9l2,2.2c0,0.1,0.1,0.1,0.2,0.1l4.4-1.2c0.1,0,0.2-0.2,0.1-0.3c0,0,0-0.1,0-0.1l-2.3-1.9c-0.1,0-0.1,0-0.2,0
		l-4.2,0.9C158.3,379.7,158.3,379.8,158.3,379.9C158.3,379.9,158.3,379.9,158.3,379.9z"/>
	<path d="M164.5,381.9l2,2.2c0,0.1,0.1,0.1,0.2,0.1l4.4-1.2c0.1,0,0.2-0.1,0.1-0.2c0,0,0-0.1-0.1-0.1l-2.3-1.9c0,0-0.1,0-0.2,0
		l-4.2,0.9C164.5,381.7,164.4,381.8,164.5,381.9C164.5,381.9,164.5,381.9,164.5,381.9z"/>
	<path d="M163.8,385.9l1.9,2.1c0.1,0.1,0.2,0.1,0.2,0.1l4.2-1.1c0.1,0,0.2-0.2,0.2-0.3c0,0,0-0.1-0.1-0.1l-2.2-1.8
		c-0.1-0.1-0.1-0.1-0.2-0.1l-4,0.9c-0.1,0-0.2,0.1-0.2,0.3C163.7,385.8,163.7,385.9,163.8,385.9z"/>
	<path d="M158.7,391l1.9,2.1c0.1,0.1,0.2,0.1,0.2,0.1l4.2-1.2c0.1,0,0.2-0.2,0.2-0.3c0,0,0-0.1-0.1-0.1l-2.2-1.8
		c-0.1-0.1-0.1-0.1-0.2,0l-4,0.9c-0.1,0-0.2,0.1-0.2,0.3C158.7,390.9,158.7,391,158.7,391z"/>
	<path d="M152.7,392.6l1.9,2.1c0.1,0.1,0.2,0.1,0.2,0.1l4.2-1.1c0.1,0,0.2-0.2,0.2-0.3c0,0,0-0.1-0.1-0.1l-2.2-1.8
		c-0.1-0.1-0.1-0.1-0.2-0.1l-4,0.9c-0.1,0-0.2,0.1-0.2,0.3C152.7,392.5,152.7,392.5,152.7,392.6z"/>
	<path d="M164.4,389.5l1.9,2.1c0.1,0.1,0.2,0.1,0.2,0.1l4.2-1.2c0.1,0,0.2-0.2,0.2-0.3c0-0.1,0-0.1-0.1-0.1l-2.2-1.8
		c-0.1,0-0.1-0.1-0.2-0.1l-4,0.9c-0.1,0-0.2,0.2-0.2,0.3C164.4,389.4,164.4,389.5,164.4,389.5z"/>
	<path d="M163.4,394l2.9,2.6c0.1,0.1,0.2,0.1,0.2,0l4.2-1.2c0.1,0,0.2-0.2,0.2-0.3c0,0,0-0.1-0.1-0.1l-3.1-2.8
		c-0.1-0.1-0.2-0.1-0.2,0l-4,1.3c-0.1,0-0.2,0.2-0.2,0.3C163.4,393.9,163.4,394,163.4,394z"/>
	<path d="M153.2,384.8l2,2.2c0,0.1,0.1,0.1,0.2,0l4.4-1.2c0.1,0,0.2-0.1,0.1-0.2c0,0,0-0.1-0.1-0.1l-2.3-1.9c-0.1,0-0.1,0-0.2,0
		l-4.2,0.9C153.2,384.5,153.2,384.6,153.2,384.8C153.2,384.7,153.2,384.8,153.2,384.8z"/>
	<path d="M147.6,386.2l1.9,2.1c0.1,0.1,0.2,0.1,0.2,0.1l4.2-1.2c0.1,0,0.2-0.2,0.2-0.3c0,0,0-0.1-0.1-0.1l-2.1-1.8
		c-0.1,0-0.1-0.1-0.2-0.1l-4,0.9c-0.1,0-0.2,0.2-0.2,0.3C147.5,386.1,147.5,386.1,147.6,386.2z"/>
	<path d="M146.4,390.2l1.9,2.1c0.1,0.1,0.2,0.1,0.2,0.1l4.2-1.2c0.1,0,0.2-0.2,0.2-0.3c0,0,0-0.1-0.1-0.1l-2.1-1.8
		c-0.1-0.1-0.1-0.1-0.2,0l-4,0.9c-0.1,0-0.3,0.1-0.3,0.3C146.3,390.1,146.3,390.2,146.4,390.2z"/>
	<path d="M140.4,391.7l1.9,2.1c0.1,0.1,0.2,0.1,0.3,0.1l4.2-1.2c0.1,0,0.2-0.2,0.2-0.3c0,0,0-0.1-0.1-0.1l-2.1-1.8
		c-0.1-0.1-0.1-0.1-0.2,0l-4,0.9c-0.1,0-0.2,0.2-0.2,0.3C140.3,391.6,140.4,391.6,140.4,391.7z"/>
	<path d="M141.5,387.5l1.9,2.1c0.1,0.1,0.2,0.1,0.2,0.1l4.2-1.2c0.1,0,0.2-0.2,0.2-0.3c0,0,0-0.1-0.1-0.1l-2.2-1.8
		c-0.1-0.1-0.1-0.1-0.2,0l-4,0.9c-0.1,0-0.2,0.1-0.2,0.2C141.4,387.4,141.4,387.5,141.5,387.5z"/>
	<path d="M146.5,393.9l1.9,2.1c0.1,0.1,0.2,0.1,0.2,0.1l4.2-1.2c0.1,0,0.2-0.2,0.2-0.3c0,0,0-0.1-0.1-0.1l-2.2-1.8
		c-0.1-0.1-0.1-0.1-0.2,0l-4,0.9c-0.1,0-0.2,0.1-0.2,0.3C146.4,393.8,146.4,393.9,146.5,393.9z"/>
	<path d="M140.6,395.5l1.8,2c0.1,0.1,0.2,0.1,0.3,0.1l4.1-1.1c0.2,0,0.3-0.2,0.2-0.4c0-0.1-0.1-0.1-0.1-0.2l-2-1.7
		c-0.1-0.1-0.2-0.1-0.3-0.1l-3.9,0.9c-0.2,0-0.3,0.2-0.3,0.4C140.5,395.4,140.6,395.5,140.6,395.5z"/>
	<path d="M159,383.3l2,2.2c0,0.1,0.1,0.1,0.2,0l4.4-1.2c0.1,0,0.2-0.1,0.1-0.2c0,0,0-0.1-0.1-0.1l-2.3-1.9c-0.1,0-0.1,0-0.2,0
		l-4.2,0.9C159,383.1,159,383.2,159,383.3C159,383.3,159,383.3,159,383.3z"/>
	<path d="M158.2,387.3l1.9,2.1c0.1,0.1,0.2,0.1,0.2,0.1l4.2-1.2c0.1,0,0.2-0.2,0.2-0.3c0,0,0-0.1-0.1-0.1l-2.1-1.8
		c-0.1-0.1-0.1-0.1-0.2,0l-4,0.9c-0.1,0-0.2,0.2-0.2,0.3C158.2,387.2,158.2,387.2,158.2,387.3z"/>
	<path d="M152.5,388.9l1.9,2.1c0.1,0.1,0.2,0.1,0.3,0.1l4.2-1.2c0.1,0,0.2-0.2,0.2-0.3c0,0,0-0.1-0.1-0.1l-2.2-1.8
		c-0.1,0-0.1-0.1-0.2-0.1l-4,0.9c-0.1,0-0.2,0.2-0.2,0.3C152.4,388.8,152.4,388.8,152.5,388.9z"/>
	<path d="M129.3,386.6l2.1,2.3c0.1,0.1,0.2,0.1,0.2,0.1l4.6-1.1c0.1,0,0.2-0.2,0.2-0.3c0-0.1,0-0.1-0.1-0.1l-2.4-2.3
		c-0.1-0.1-0.1-0.1-0.2-0.1l-4.3,1.1c-0.1,0-0.2,0.2-0.2,0.3C129.2,386.5,129.2,386.5,129.3,386.6z"/>
	<path d="M123.2,388.1l2,2.2c0.1,0.1,0.2,0.1,0.3,0.1l4.4-1c0.2,0,0.3-0.2,0.2-0.4c0-0.1,0-0.1-0.1-0.2l-2.3-2.2
		c-0.1-0.1-0.2-0.1-0.3-0.1l-4.2,1c-0.2,0.1-0.3,0.2-0.2,0.4C123.1,388,123.1,388,123.2,388.1z"/>
	<path d="M116.6,393.1l1.5,2.4c0.1,0.1,0.2,0.2,0.3,0.1l5.1-1.1c0.2,0,0.3-0.2,0.2-0.4c0,0,0-0.1-0.1-0.1l-1.7-2.3
		c-0.1-0.1-0.2-0.2-0.3-0.1l-4.9,1.1C116.7,392.7,116.6,392.9,116.6,393.1C116.6,393.1,116.6,393.1,116.6,393.1z"/>
	<path d="M83.1,394l5.1-1.2c0.1,0,0.2,0,0.3,0.1l0.9,1.2c0.1,0.1,0.1,0.3-0.1,0.4c0,0-0.1,0-0.1,0.1l-5.2,1.2c-0.1,0-0.3,0-0.3-0.1
		l-0.7-1.2C82.8,394.3,82.9,394.2,83.1,394C83.1,394.1,83.1,394,83.1,394z"/>
	<path d="M90.1,392.5l5-1.2c0.1,0,0.2,0,0.3,0.1l0.9,1.2c0.1,0.1,0.1,0.3-0.1,0.4c0,0-0.1,0-0.1,0.1l-5.2,1.2c-0.1,0-0.3,0-0.3-0.1
		l-0.7-1.2c-0.1-0.1,0-0.3,0.1-0.4C90,392.5,90,392.5,90.1,392.5z"/>
	<path d="M96.8,391.1l5.1-1.2c0.1,0,0.2,0,0.3,0.1l0.9,1.2c0.1,0.1,0.1,0.3-0.1,0.4c0,0-0.1,0-0.1,0.1l-5.2,1.2
		c-0.1,0-0.3,0-0.3-0.1l-0.7-1.2C96.5,391.4,96.6,391.2,96.8,391.1C96.7,391.1,96.8,391.1,96.8,391.1z"/>
	<path d="M103.3,389.6l5.1-1.2c0.1,0,0.2,0,0.3,0.1l0.9,1.2c0.1,0.1,0.1,0.3-0.1,0.4c0,0-0.1,0-0.1,0l-5.2,1.2c-0.1,0-0.3,0-0.3-0.1
		l-0.7-1.2C103.1,389.9,103.1,389.7,103.3,389.6C103.3,389.6,103.3,389.6,103.3,389.6z"/>
	<path d="M110,388.1l5-1.2c0.1,0,0.2,0,0.3,0.1l0.9,1.1c0.1,0.1,0.1,0.3-0.1,0.4c0,0-0.1,0-0.1,0.1l-5.2,1.2c-0.1,0-0.3,0-0.3-0.1
		l-0.7-1.2C109.7,388.4,109.7,388.2,110,388.1C109.9,388.1,109.9,388.1,110,388.1z"/>
	<path d="M116.4,386.8l5-1.2c0.1,0,0.2,0,0.3,0.1l0.9,1.1c0.1,0.1,0.1,0.3-0.1,0.4c0,0-0.1,0-0.1,0.1l-5.2,1.2c-0.1,0-0.3,0-0.3-0.1
		l-0.7-1.2C116.1,387.1,116.2,386.9,116.4,386.8C116.4,386.8,116.4,386.8,116.4,386.8z"/>
	<path d="M122.7,385.5l4.6-1.1c0.1,0,0.2,0,0.3,0.1l0.9,0.9c0.1,0.1,0.1,0.3,0,0.5c0,0-0.1,0.1-0.1,0.1l-4.6,1.1
		c-0.1,0-0.2,0-0.3-0.1l-1-1c-0.1-0.1-0.1-0.3,0.1-0.4C122.7,385.5,122.7,385.5,122.7,385.5z"/>
	<path d="M128.9,384l4.8-1.2c0.1,0,0.2,0,0.2,0.1l1,1c0.1,0.1,0.1,0.2,0,0.3c0,0-0.1,0.1-0.1,0.1l-4.7,1.2c-0.1,0-0.2,0-0.2-0.1
		l-1.1-1.1c-0.1-0.1-0.1-0.3,0-0.4C128.8,384.1,128.8,384.1,128.9,384z"/>
	<path d="M135,382.6l4.8-1.2c0.1,0,0.2,0,0.2,0.1l1,1c0.1,0.1,0.1,0.3,0,0.4c0,0-0.1,0.1-0.1,0.1l-4.7,1.2c-0.1,0-0.2,0-0.2-0.1
		l-1-1.1C134.8,382.9,134.9,382.7,135,382.6C135,382.6,135,382.6,135,382.6z"/>
	<path d="M141.1,381.3l4.8-1.2c0.1,0,0.2,0,0.2,0.1l1,1c0.1,0.1,0.1,0.3,0,0.4c0,0-0.1,0-0.1,0.1l-4.7,1.2c-0.1,0-0.2,0-0.2-0.1
		l-1.1-1.1C140.9,381.7,140.9,381.5,141.1,381.3C141.1,381.4,141.1,381.4,141.1,381.3z"/>
	<path d="M146.9,380l4.9-1.2c0.1,0,0.1,0,0.2,0l1.1,1.1c0.1,0.1,0.1,0.2,0,0.3c0,0-0.1,0-0.1,0.1l-4.9,1.2c-0.1,0-0.1,0-0.2,0
		l-1.2-1.2C146.8,380.2,146.8,380.1,146.9,380C146.9,380,146.9,380,146.9,380z"/>
	<path d="M152.8,378.7l4.9-1.2c0.1,0,0.1,0,0.2,0.1l1.1,1.1c0.1,0.1,0.1,0.2,0,0.3c0,0-0.1,0-0.1,0.1l-4.9,1.2c-0.1,0-0.1,0-0.2,0
		l-1.2-1.2c-0.1-0.1-0.1-0.2,0-0.3C152.7,378.7,152.7,378.7,152.8,378.7z"/>
	<path d="M158.6,377.4l4.6-1c0.1,0,0.1,0,0.2,0.1l0.9,1.1c0.1,0.1,0.1,0.2,0,0.3c0,0,0,0-0.1,0l-4.3,1.1c-0.1,0-0.1,0-0.2,0
		l-1.2-1.2c-0.1-0.1-0.1-0.2-0.1-0.3C158.5,377.4,158.6,377.4,158.6,377.4z"/>
	<path d="M164.2,376.1l4.6-1c0.1,0,0.1,0,0.2,0.1l0.9,1.1c0.1,0.1,0.1,0.2,0,0.3c0,0,0,0-0.1,0l-4.3,1.1c-0.1,0-0.1,0-0.2,0
		l-1.1-1.2c-0.1-0.1-0.1-0.2,0-0.3C164.1,376.1,164.1,376.1,164.2,376.1z"/>
	<path d="M86.7,400.1l1.7,2.4c0.1,0.1,0.2,0.1,0.3,0.1l8.8-2c0.2,0,0.3-0.2,0.2-0.3c0,0,0-0.1-0.1-0.1l-1.9-2.5
		c-0.1-0.1-0.2-0.1-0.3-0.1l-8.6,2.1C86.7,399.6,86.6,399.8,86.7,400.1C86.6,400,86.6,400,86.7,400.1z"/>
	<path d="M89.3,403.3l1.7,2.7c0.1,0.1,0.2,0.2,0.3,0.1l10.6-2.5c0.2,0,0.3-0.2,0.2-0.3c0,0,0-0.1-0.1-0.1l-2.1-2.6
		c-0.1-0.1-0.2-0.1-0.3-0.1l-10.1,2.4C89.4,402.9,89.3,403,89.3,403.3C89.3,403.2,89.3,403.2,89.3,403.3z"/>
	<path d="M91.7,406.8l2,2.9c0.1,0.1,0.2,0.1,0.3,0.1l14-3.5c0.2,0,0.3-0.2,0.2-0.4c0,0,0-0.1,0-0.1l-2.2-2.9
		c-0.1-0.1-0.2-0.1-0.3-0.1l-13.8,3.5C91.6,406.4,91.6,406.6,91.7,406.8C91.7,406.8,91.7,406.8,91.7,406.8z"/>
	<path d="M123.8,403.6l2.6,3.1c0.1,0.1,0.2,0.1,0.3,0.1l30.8-7.7c0.2,0,0.3-0.2,0.2-0.4c0-0.1,0-0.1-0.1-0.1l-3.1-3.1
		c-0.1-0.1-0.2-0.1-0.3-0.1l-30.2,7.7c-0.2,0-0.3,0.2-0.2,0.4C123.7,403.6,123.7,403.6,123.8,403.6z"/>
	<path d="M155.6,395.7l3,3c0.1,0.1,0.2,0.1,0.2,0.1l6.3-1.7c0.1,0,0.2-0.2,0.2-0.3c0,0,0-0.1-0.1-0.1l-3.1-3.1
		c-0.1-0.1-0.2-0.1-0.2-0.1l-6.2,1.8C155.5,395.3,155.5,395.5,155.6,395.7C155.5,395.6,155.5,395.6,155.6,395.7z"/>
	<path d="M170.8,393.8l1.4,1.5c0,0.1,0.1,0.1,0.2,0l4.7-1.3c0.1,0,0.2-0.1,0.1-0.2c0,0,0-0.1-0.1-0.1l-1.7-1.6c-0.1,0-0.1,0-0.2,0
		l-4.4,1.4C170.8,393.5,170.7,393.6,170.8,393.8C170.8,393.7,170.8,393.8,170.8,393.8z"/>
	<path d="M174.8,390.6l1.6,1.7c0.1,0.1,0.1,0.1,0.2,0l4.3-1.5c0.1,0,0.2-0.1,0.1-0.2c0,0,0-0.1-0.1-0.1l-1.6-1.4c-0.1,0-0.1,0-0.2,0
		l-4.3,1.2C174.7,390.4,174.7,390.5,174.8,390.6C174.8,390.6,174.8,390.6,174.8,390.6z"/>
	<path d="M177.9,393.6l-1.2-1c-0.1-0.1-0.1-0.2-0.1-0.3c0,0,0,0,0.1-0.1l4.3-1.5c0.1,0,0.1,0,0.2,0l1.3,1.3c0.1,0.1,0.1,0.2,0,0.3
		c0,0-0.1,0-0.1,0.1l-4.4,1.1C178,393.6,178,393.6,177.9,393.6z"/>
	<path d="M182.3,391c0.4,0.4,1,1.1,1.3,1.3c0.1,0,0.1,0.1,0.2,0l4.5-1.2c0.1,0,0.2-0.1,0.1-0.2c0,0,0-0.1-0.1-0.1l-1.6-1.4
		c-0.1,0-0.1,0-0.2,0l-4.1,1.3C182.3,390.7,182.3,390.9,182.3,391C182.3,391,182.3,391,182.3,391z"/>
	<path d="M169.8,388.2l2.4,2.3c0,0,0.1,0.1,0.2,0l11.5-3c0.1,0,0.2-0.1,0.1-0.2c0,0,0-0.1-0.1-0.1l-2.8-2.3c-0.1,0-0.1,0-0.2,0
		l-11.1,3C169.8,387.9,169.8,388,169.8,388.2C169.8,388.1,169.8,388.1,169.8,388.2z"/>
	<path d="M169.1,384.6l2.5,2.2c0.1,0,0.1,0,0.2,0l8.6-2c0.1,0,0.2-0.1,0.1-0.2c0,0,0-0.1-0.1-0.1l-2.8-2.4c0,0-0.1,0-0.2,0l-8.3,2.2
		c-0.1,0-0.2,0.1-0.2,0.2C169,384.5,169,384.6,169.1,384.6z"/>
	<path d="M169.8,380.8l2.3,2.1c0.1,0,0.1,0,0.2,0l4.4-1c0.1,0,0.2-0.1,0.1-0.2c0,0,0-0.1-0.1-0.1l-2.8-2.3c-0.1,0-0.1,0-0.2,0
		l-4,1.3C169.8,380.6,169.8,380.7,169.8,380.8C169.8,380.8,169.8,380.8,169.8,380.8z"/>
	<path d="M163.8,378.8l2.2,2c0.1,0,0.1,0,0.2,0l7-1.7c0.1,0,0.2-0.1,0.1-0.2c0,0,0-0.1-0.1-0.1l-2.7-2.2c-0.1,0-0.1,0-0.2,0
		l-6.6,1.9C163.7,378.5,163.7,378.6,163.8,378.8C163.7,378.7,163.7,378.8,163.8,378.8z"/>
</g>
<path class="st17" d="M84.4,395.7l1.5,2.5c0.1,0.1,0.2,0.2,0.3,0.1l5.2-1.1c0.2,0,0.3-0.2,0.2-0.4c0,0,0-0.1,0-0.1l-1.7-2.4
	c-0.1-0.1-0.2-0.1-0.3-0.1l-5,1.1c-0.2,0-0.3,0.2-0.2,0.4C84.4,395.6,84.4,395.7,84.4,395.7z"/>
<path class="st17" d="M91.2,394.3l1.5,2.5c0.1,0.1,0.2,0.2,0.3,0.1l5.2-1.1c0.2-0.1,0.2-0.2,0.2-0.4c0,0,0,0,0,0l-1.7-2.4
	c-0.1-0.1-0.2-0.1-0.3-0.1l-5,1.1C91.2,393.9,91.1,394.1,91.2,394.3C91.2,394.3,91.2,394.3,91.2,394.3z"/>
<path class="st17" d="M97.7,392.9l1.5,2.5c0.1,0.1,0.2,0.2,0.3,0.1l5.2-1.1c0.2,0,0.3-0.2,0.2-0.3c0,0,0-0.1,0-0.1l-1.7-2.4
	c-0.1-0.1-0.2-0.1-0.3-0.1l-5,1.1C97.8,392.5,97.7,392.6,97.7,392.9C97.7,392.8,97.7,392.8,97.7,392.9z"/>
<path class="st17" d="M104.2,391.5l1.5,2.4c0.1,0.1,0.2,0.2,0.3,0.1l5.1-1.1c0.2,0,0.3-0.2,0.2-0.4c0,0,0-0.1-0.1-0.1l-1.7-2.3
	c-0.1-0.1-0.2-0.1-0.3-0.1l-4.9,1.1C104.2,391,104.1,391.2,104.2,391.5C104.1,391.4,104.2,391.4,104.2,391.5z"/>
<path class="st17" d="M103.7,395.3l1.5,2.5c0.1,0.1,0.2,0.2,0.3,0.1l5.2-1.1c0.2,0,0.3-0.2,0.2-0.4c0,0,0-0.1,0-0.1l-1.7-2.4
	c-0.1-0.1-0.2-0.1-0.3-0.1l-5,1.1C103.7,394.9,103.6,395,103.7,395.3C103.6,395.2,103.6,395.2,103.7,395.3z"/>
<path class="st17" d="M97,396.6l1.5,2.5c0.1,0.1,0.2,0.2,0.3,0.1l5.2-1.1c0.2,0,0.3-0.2,0.2-0.4c0,0,0-0.1,0-0.1l-1.7-2.4
	c-0.1-0.1-0.2-0.1-0.3-0.1l-5,1.1C97,396.3,96.9,396.4,97,396.6C97,396.6,97,396.6,97,396.6z"/>
<path class="st17" d="M101.3,399.7l1.5,2.5c0.1,0.1,0.2,0.2,0.3,0.1l5.2-1.1c0.2,0,0.3-0.2,0.2-0.4c0,0,0-0.1,0-0.1l-1.7-2.4
	c-0.1-0.1-0.2-0.1-0.3-0.1l-5,1.1C101.3,399.3,101.3,399.4,101.3,399.7C101.3,399.6,101.3,399.6,101.3,399.7z"/>
<path class="st17" d="M107.5,402.3l1.5,2.5c0.1,0.1,0.2,0.2,0.3,0.1l5.2-1.1c0.2,0,0.3-0.2,0.2-0.4c0,0,0-0.1,0-0.1l-1.7-2.4
	c-0.1-0.1-0.2-0.1-0.3-0.1l-5,1.1C107.5,401.9,107.4,402,107.5,402.3C107.4,402.2,107.5,402.2,107.5,402.3z"/>
<path class="st17" d="M108.5,406.6l2.5,3.1c0.1,0.1,0.2,0.1,0.3,0.1l5.2-1.4c0.2,0,0.2-0.2,0.2-0.4c0,0,0-0.1-0.1-0.1l-2.6-3.1
	c-0.1-0.1-0.2-0.1-0.3-0.1l-5.1,1.4c-0.2,0-0.3,0.2-0.2,0.4C108.5,406.5,108.5,406.6,108.5,406.6z"/>
<path class="st17" d="M115.3,404.9l2.5,3.2c0.1,0.1,0.2,0.1,0.3,0.1l6.8-1.9c0.2,0,0.2-0.2,0.2-0.4c0,0,0-0.1-0.1-0.1l-2.6-3.1
	c-0.1-0.1-0.2-0.1-0.3-0.1l-6.8,1.8c-0.2,0-0.2,0.2-0.2,0.4C115.3,404.8,115.3,404.9,115.3,404.9z"/>
<path class="st17" d="M101.9,408.3l2.5,3.1c0.1,0.1,0.2,0.1,0.3,0.1l5.2-1.4c0.2,0,0.2-0.2,0.2-0.4c0,0,0-0.1-0.1-0.1l-2.6-3.1
	c-0.1-0.1-0.2-0.1-0.3-0.1l-5.1,1.4c-0.2,0-0.3,0.2-0.2,0.4C101.9,408.2,101.9,408.2,101.9,408.3z"/>
<path class="st17" d="M94.9,410.1l2.5,3.1c0.1,0.1,0.2,0.1,0.3,0.1l5.2-1.4c0.2,0,0.3-0.2,0.2-0.4c0,0,0-0.1,0-0.1l-2.6-3.1
	c-0.1-0.1-0.2-0.1-0.3-0.1l-5.1,1.4c-0.2,0-0.2,0.2-0.2,0.4C94.8,410,94.8,410,94.9,410.1z"/>
<path class="st17" d="M110.6,389.9l1.5,2.4c0.1,0.1,0.2,0.2,0.3,0.1l5.1-1.1c0.2,0,0.3-0.2,0.2-0.4c0,0,0-0.1,0-0.1l-1.7-2.4
	c-0.1-0.1-0.2-0.1-0.3-0.1l-5,1.1C110.6,389.5,110.5,389.7,110.6,389.9C110.6,389.9,110.6,389.9,110.6,389.9z"/>
<path class="st17" d="M110.2,393.7l1.5,2.4c0.1,0.1,0.2,0.2,0.3,0.1l5.1-1.1c0.2,0,0.3-0.2,0.2-0.4c0,0,0-0.1-0.1-0.1l-1.7-2.3
	c-0.1-0.1-0.2-0.2-0.3-0.1l-5,1.1C110.2,393.3,110.1,393.5,110.2,393.7C110.2,393.7,110.2,393.7,110.2,393.7z"/>
<path class="st17" d="M116.9,388.5l1.5,2.4c0.1,0.1,0.2,0.2,0.3,0.1l5.1-1.1c0.2,0,0.3-0.2,0.2-0.4c0,0,0-0.1,0-0.1l-1.7-2.3
	c-0.1-0.1-0.2-0.2-0.3-0.1l-4.9,1.1C116.9,388.1,116.8,388.3,116.9,388.5C116.9,388.5,116.9,388.5,116.9,388.5z"/>
<path class="st17" d="M135.2,384.5l2.1,2.3c0.1,0.1,0.2,0.1,0.2,0.1l4.6-1.1c0.1,0,0.2-0.2,0.2-0.3c0,0,0-0.1-0.1-0.1l-2.4-2.3
	c-0.1-0.1-0.1-0.1-0.2-0.1l-4.3,1.1c-0.1,0-0.2,0.2-0.2,0.3C135.2,384.5,135.2,384.5,135.2,384.5z"/>
<path class="st17" d="M141.1,383.2l2.1,2.2c0.1,0.1,0.2,0.1,0.2,0.1l4.6-1.1c0.1,0,0.2-0.2,0.2-0.3c0-0.1,0-0.1-0.1-0.1l-2.4-2.3
	c-0.1-0.1-0.1-0.1-0.2-0.1l-4.3,1.1c-0.1,0-0.2,0.2-0.2,0.3C141.1,383.1,141.1,383.1,141.1,383.2z"/>
<path class="st17" d="M135.4,388.2l2.1,2.3c0.1,0.1,0.2,0.1,0.2,0.1l4.6-1.1c0.1,0,0.2-0.2,0.2-0.3c0-0.1,0-0.1-0.1-0.1l-2.4-2.3
	c-0.1-0.1-0.2-0.1-0.2-0.1l-4.3,1.1C135.4,387.8,135.3,388,135.4,388.2C135.3,388.1,135.4,388.2,135.4,388.2z"/>
<path class="st17" d="M129.3,389.6l2,2.1c0.1,0.1,0.2,0.1,0.3,0.1l4.4-1c0.2,0,0.3-0.2,0.2-0.4c0-0.1,0-0.1-0.1-0.2l-2.3-2.2
	c-0.1-0.1-0.2-0.1-0.3-0.1l-4.2,1c-0.2,0.1-0.3,0.2-0.2,0.4C129.3,389.5,129.3,389.6,129.3,389.6z"/>
<path class="st17" d="M133.9,396.4l2,2.2c0.1,0.1,0.2,0.1,0.3,0.1l4.4-1c0.2,0,0.3-0.2,0.2-0.4c0-0.1,0-0.1-0.1-0.2l-2.3-2.2
	c-0.1-0.1-0.2-0.1-0.3-0.1l-4.2,1c-0.2,0.1-0.3,0.2-0.2,0.4C133.9,396.3,133.9,396.4,133.9,396.4z"/>
<path class="st17" d="M127.7,397.8l2,2.2c0.1,0.1,0.2,0.1,0.3,0.1l4.4-1c0.2,0,0.3-0.2,0.2-0.4c0-0.1,0-0.1-0.1-0.2l-2.2-2.2
	c-0.1-0.1-0.2-0.1-0.3-0.1l-4.2,1c-0.2,0-0.3,0.1-0.3,0.3C127.6,397.7,127.6,397.8,127.7,397.8z"/>
<path class="st17" d="M121.3,399.4l2,2.2c0.1,0.1,0.2,0.1,0.3,0.1l4.4-1c0.2,0,0.3-0.2,0.2-0.4c0-0.1,0-0.1-0.1-0.2l-2.3-2.2
	c-0.1-0.1-0.2-0.1-0.3-0.1l-4.2,1c-0.2,0.1-0.2,0.2-0.2,0.4C121.3,399.3,121.3,399.4,121.3,399.4z"/>
<path class="st17" d="M114.6,400.7l2.1,2.2c0.1,0.1,0.2,0.1,0.3,0.1l4.5-1c0.2,0,0.3-0.2,0.2-0.3c0-0.1,0-0.1-0.1-0.2l-2.3-2.2
	c-0.1-0.1-0.2-0.1-0.3-0.1l-4.2,1c-0.2,0-0.3,0.2-0.3,0.3C114.4,400.6,114.5,400.7,114.6,400.7z"/>
<path class="st17" d="M127.6,393.9l2,2.2c0.1,0.1,0.2,0.1,0.3,0.1l4.4-1c0.2,0,0.3-0.2,0.2-0.4c0-0.1,0-0.1-0.1-0.1l-2.3-2.2
	c-0.1-0.1-0.2-0.1-0.3-0.1l-4.2,1c-0.2,0.1-0.2,0.2-0.2,0.4C127.5,393.8,127.6,393.8,127.6,393.9z"/>
<path class="st17" d="M121.5,395.3l2,2.2c0.1,0.1,0.2,0.1,0.3,0.1l4.4-1c0.2,0,0.3-0.2,0.2-0.4c0-0.1,0-0.1-0.1-0.2l-2.3-2.2
	c-0.1-0.1-0.2-0.1-0.3-0.1l-4.2,1c-0.2,0.1-0.2,0.2-0.2,0.4C121.4,395.2,121.5,395.2,121.5,395.3z"/>
<path class="st17" d="M114.9,396.7l2,2.2c0.1,0.1,0.2,0.1,0.3,0.1l4.4-1c0.2,0,0.3-0.2,0.2-0.4c0-0.1,0-0.1-0.1-0.2l-2.3-2.2
	c-0.1-0.1-0.2-0.1-0.3-0.1l-4.2,1c-0.2,0.1-0.3,0.2-0.2,0.4C114.9,396.6,114.9,396.6,114.9,396.7z"/>
<path class="st17" d="M108.2,398.3l2.1,2.2c0.1,0.1,0.2,0.1,0.3,0.1l4.5-1c0.2,0,0.3-0.2,0.2-0.3c0-0.1,0-0.1-0.1-0.2l-2.3-2.2
	c-0.1-0.1-0.2-0.1-0.3-0.1l-4.2,1c-0.2,0-0.3,0.2-0.2,0.4C108.2,398.2,108.2,398.2,108.2,398.3z"/>
<path class="st17" d="M133.9,392.4l2,2.2c0.1,0.1,0.2,0.1,0.3,0.1l4.4-1c0.2,0,0.3-0.2,0.2-0.4c0-0.1,0-0.1-0.1-0.2l-2.3-2.2
	c-0.1-0.1-0.2-0.1-0.3-0.1l-4.2,1c-0.2,0.1-0.3,0.2-0.2,0.4C133.8,392.3,133.9,392.4,133.9,392.4z"/>
<path class="st17" d="M123.2,391.2l2,2.2c0.1,0.1,0.2,0.1,0.3,0.1l4.4-1c0.2,0,0.3-0.2,0.2-0.4c0-0.1,0-0.1-0.1-0.1l-2.3-2.2
	c-0.1-0.1-0.2-0.1-0.3-0.1l-4.2,1c-0.2,0.1-0.3,0.2-0.2,0.4C123.2,391.1,123.2,391.1,123.2,391.2z"/>
<path class="st17" d="M146.8,381.7l2.2,2.4c0,0,0.1,0.1,0.2,0l4.7-1.1c0.1,0,0.2-0.1,0.1-0.2c0,0,0-0.1-0.1-0.1l-2.5-2.4
	c0,0-0.1-0.1-0.2,0l-4.4,1.1C146.8,381.5,146.7,381.6,146.8,381.7C146.7,381.7,146.8,381.7,146.8,381.7z"/>
<path class="st17" d="M152.5,380.5l2.2,2.4c0,0,0.1,0.1,0.2,0l4.7-1.1c0.1,0,0.2-0.1,0.1-0.2c0,0,0-0.1-0.1-0.1l-2.5-2.4
	c0,0-0.1-0.1-0.2,0l-4.4,1.1c-0.1,0-0.2,0.1-0.1,0.2C152.4,380.4,152.5,380.5,152.5,380.5z"/>
<path class="st17" d="M158.3,379.1l2,2.2c0,0,0.1,0.1,0.2,0l4.4-1.2c0.1,0,0.2-0.1,0.1-0.2c0,0,0-0.1-0.1-0.1l-2.3-1.9
	c-0.1,0-0.1,0-0.2,0l-4.2,0.9C158.3,378.9,158.3,379,158.3,379.1C158.3,379.1,158.3,379.1,158.3,379.1z"/>
<path class="st17" d="M164.5,381.2l2,2.2c0,0.1,0.1,0.1,0.2,0l4.4-1.2c0.1,0,0.2-0.1,0.1-0.2c0,0,0-0.1-0.1-0.1l-2.3-1.9
	c-0.1,0-0.1,0-0.2,0l-4.2,0.9C164.5,381,164.4,381.1,164.5,381.2C164.5,381.2,164.5,381.2,164.5,381.2z"/>
<path class="st17" d="M163.8,385.2l1.9,2.1c0.1,0.1,0.2,0.1,0.2,0.1l4.2-1.2c0.1,0,0.2-0.2,0.2-0.3c0,0,0-0.1-0.1-0.1l-2.2-1.8
	c-0.1,0-0.1,0-0.2,0l-4,0.9C163.8,384.8,163.7,385,163.8,385.2C163.7,385.1,163.7,385.2,163.8,385.2z"/>
<path class="st17" d="M158.7,390.3l1.9,2.1c0.1,0.1,0.2,0.1,0.2,0.1l4.2-1.1c0.1,0,0.2-0.2,0.2-0.3c0,0,0-0.1-0.1-0.1l-2.2-1.8
	c-0.1-0.1-0.1-0.1-0.2,0l-4,0.9c-0.1,0-0.2,0.1-0.2,0.3C158.7,390.2,158.7,390.2,158.7,390.3z"/>
<path class="st17" d="M152.7,391.8l1.9,2.1c0.1,0.1,0.2,0.1,0.2,0.1l4.2-1.2c0.1,0,0.2-0.2,0.2-0.3c0,0,0-0.1-0.1-0.1l-2.2-1.8
	c-0.1-0.1-0.1-0.1-0.2,0l-4,0.9c-0.1,0-0.2,0.2-0.2,0.3C152.7,391.7,152.7,391.8,152.7,391.8z"/>
<path class="st17" d="M164.4,388.8l1.9,2.1c0.1,0.1,0.2,0.1,0.2,0.1l4.2-1.2c0.1,0,0.2-0.2,0.2-0.3c0,0,0-0.1-0.1-0.1l-2.1-1.8
	c-0.1-0.1-0.1-0.1-0.2,0l-4,0.9c-0.1,0-0.2,0.1-0.2,0.3C164.4,388.7,164.4,388.7,164.4,388.8z"/>
<path class="st17" d="M163.4,393.3l2.9,2.6c0.1,0.1,0.2,0.1,0.2,0l4.2-1.2c0.1,0,0.2-0.2,0.2-0.3c0,0,0-0.1-0.1-0.1l-3.1-2.8
	c-0.1-0.1-0.2-0.1-0.2,0l-4,1.3c-0.1,0-0.2,0.2-0.1,0.3C163.4,393.2,163.4,393.2,163.4,393.3z"/>
<path class="st17" d="M153.2,384l2,2.2c0,0.1,0.1,0.1,0.2,0.1l4.4-1.2c0.1,0,0.2-0.1,0.1-0.2c0,0,0-0.1-0.1-0.1l-2.3-1.9
	c-0.1,0-0.1,0-0.2,0l-4.2,0.9C153.2,383.8,153.2,383.9,153.2,384C153.2,384,153.2,384,153.2,384z"/>
<path class="st17" d="M147.6,385.4l1.9,2.1c0.1,0.1,0.2,0.1,0.2,0.1l4.2-1.2c0.1,0,0.2-0.2,0.2-0.3c0,0,0-0.1-0.1-0.1l-2.1-1.8
	c-0.1,0-0.2,0-0.2,0l-4,0.9C147.6,385.1,147.5,385.2,147.6,385.4C147.5,385.4,147.5,385.4,147.6,385.4z"/>
<path class="st17" d="M146.4,389.5l1.9,2.1c0.1,0.1,0.2,0.1,0.2,0.1l4.2-1.1c0.1,0,0.2-0.2,0.2-0.3c0,0,0-0.1-0.1-0.1l-2.1-1.8
	c-0.1-0.1-0.1-0.1-0.2-0.1l-4,0.9c-0.1,0-0.2,0.1-0.2,0.3C146.3,389.4,146.3,389.4,146.4,389.5z"/>
<path class="st17" d="M140.4,390.9l1.9,2.1c0.1,0.1,0.2,0.1,0.3,0.1l4.2-1.1c0.1,0,0.2-0.2,0.2-0.3c0,0,0-0.1-0.1-0.1l-2.1-1.8
	c-0.1-0.1-0.1-0.1-0.2,0l-4,0.9c-0.1,0-0.2,0.2-0.2,0.3C140.3,390.8,140.4,390.9,140.4,390.9z"/>
<path class="st17" d="M141.5,386.8l1.9,2.1c0.1,0.1,0.2,0.1,0.2,0.1l4.2-1.2c0.1,0,0.2-0.2,0.2-0.3c0,0,0-0.1-0.1-0.1l-2.2-1.8
	c-0.1,0-0.1-0.1-0.2-0.1l-4,0.9c-0.1,0-0.2,0.1-0.2,0.3C141.4,386.7,141.4,386.7,141.5,386.8z"/>
<path class="st17" d="M146.5,393.2l1.9,2.1c0.1,0.1,0.2,0.1,0.2,0.1l4.2-1.1c0.1,0,0.2-0.2,0.2-0.3c0,0,0-0.1-0.1-0.1l-2.2-1.8
	c-0.1,0-0.1,0-0.2,0l-4,0.9C146.5,392.8,146.4,393,146.5,393.2C146.5,393.1,146.5,393.1,146.5,393.2z"/>
<path class="st17" d="M140.6,394.8l1.8,2c0.1,0.1,0.2,0.1,0.3,0.1l4.1-1.1c0.2,0,0.3-0.2,0.2-0.4c0-0.1-0.1-0.1-0.1-0.2l-2-1.7
	c-0.1-0.1-0.2-0.1-0.3-0.1l-3.9,0.9c-0.2,0-0.3,0.2-0.3,0.4C140.5,394.7,140.6,394.7,140.6,394.8z"/>
<path class="st17" d="M159,382.6l2,2.2c0,0.1,0.1,0.1,0.2,0.1l4.4-1.2c0.1,0,0.2-0.1,0.1-0.2c0,0,0-0.1-0.1-0.1l-2.3-1.9
	c-0.1,0-0.1,0-0.2,0l-4.2,0.9C159,382.3,159,382.5,159,382.6C159,382.6,159,382.6,159,382.6z"/>
<path class="st17" d="M158.2,386.5l1.9,2.1c0.1,0.1,0.2,0.1,0.2,0.1l4.2-1.1c0.1,0,0.2-0.2,0.2-0.3c0,0,0-0.1-0.1-0.1l-2.1-1.8
	c-0.1-0.1-0.1-0.1-0.2,0l-4,0.9c-0.1,0-0.2,0.1-0.2,0.3C158.2,386.4,158.2,386.5,158.2,386.5z"/>
<path class="st17" d="M152.5,388.1l1.9,2.1c0.1,0.1,0.2,0.1,0.3,0.1l4.2-1.2c0.1,0,0.2-0.2,0.2-0.3c0,0,0-0.1-0.1-0.1l-2.2-1.8
	c-0.1-0.1-0.1-0.1-0.2,0l-4,0.9c-0.1,0-0.2,0.2-0.2,0.3C152.4,388,152.4,388.1,152.5,388.1z"/>
<path class="st17" d="M129.3,385.8l2.1,2.3c0.1,0.1,0.2,0.1,0.2,0.1l4.6-1.1c0.1,0,0.2-0.2,0.2-0.3c0-0.1,0-0.1-0.1-0.1l-2.4-2.3
	c-0.1-0.1-0.1-0.1-0.2-0.1l-4.3,1.1c-0.1,0-0.2,0.2-0.2,0.3C129.2,385.7,129.2,385.8,129.3,385.8z"/>
<path class="st17" d="M123.2,387.3l2,2.1c0.1,0.1,0.2,0.1,0.3,0.1l4.4-1c0.2,0,0.3-0.2,0.2-0.4c0-0.1,0-0.1-0.1-0.2l-2.3-2.2
	c-0.1-0.1-0.2-0.1-0.3-0.1l-4.2,1c-0.2,0.1-0.2,0.2-0.2,0.4C123.1,387.3,123.1,387.3,123.2,387.3z"/>
<path class="st17" d="M116.6,392.4l1.5,2.4c0.1,0.1,0.2,0.2,0.3,0.1l5.1-1.1c0.2,0,0.3-0.2,0.2-0.4c0,0,0-0.1,0-0.1l-1.7-2.4
	c-0.1-0.1-0.2-0.2-0.3-0.1l-4.9,1.1c-0.2,0-0.3,0.2-0.2,0.4C116.6,392.3,116.6,392.3,116.6,392.4z"/>
<path class="st17" d="M83.1,393.3l5.1-1.2c0.1,0,0.2,0,0.3,0.1l0.9,1.2c0.1,0.1,0.1,0.3-0.1,0.4c0,0-0.1,0-0.1,0.1l-5.2,1.2
	c-0.1,0-0.3,0-0.3-0.1l-0.7-1.2C82.8,393.6,82.9,393.4,83.1,393.3C83.1,393.3,83.1,393.3,83.1,393.3z"/>
<path class="st17" d="M90.1,391.8l5-1.2c0.1,0,0.2,0,0.3,0.1l0.9,1.2c0.1,0.1,0.1,0.3-0.1,0.4c0,0-0.1,0-0.1,0.1l-5.2,1.2
	c-0.1,0-0.3,0-0.3-0.1l-0.7-1.2c-0.1-0.1,0-0.3,0.1-0.4C90,391.8,90,391.8,90.1,391.8z"/>
<path class="st17" d="M96.8,390.3l5.1-1.2c0.1,0,0.2,0,0.3,0.1l0.9,1.2c0.1,0.1,0.1,0.3-0.1,0.4c0,0-0.1,0-0.1,0.1l-5.2,1.2
	c-0.1,0-0.3,0-0.3-0.1l-0.7-1.2C96.5,390.6,96.6,390.4,96.8,390.3C96.7,390.3,96.7,390.3,96.8,390.3z"/>
<path class="st17" d="M103.3,388.8l5-1.2c0.1,0,0.2,0,0.3,0.1l0.9,1.2c0.1,0.1,0.1,0.3-0.1,0.4c0,0-0.1,0-0.1,0.1l-5.2,1.2
	c-0.1,0-0.3,0-0.3-0.1l-0.7-1.2c-0.1-0.1,0-0.3,0.1-0.4C103.3,388.9,103.3,388.8,103.3,388.8z"/>
<path class="st17" d="M110,387.4l5-1.2c0.1,0,0.2,0,0.3,0.1l0.9,1.1c0.1,0.1,0.1,0.3-0.1,0.4c0,0-0.1,0-0.1,0.1l-5.2,1.2
	c-0.1,0-0.3,0-0.3-0.1l-0.7-1.2c-0.1-0.1,0-0.3,0.1-0.4C109.9,387.4,109.9,387.4,110,387.4z"/>
<path class="st17" d="M116.4,386l5-1.2c0.1,0,0.2,0,0.3,0.1l0.9,1.1c0.1,0.1,0.1,0.3-0.1,0.4c0,0-0.1,0-0.1,0.1l-5.2,1.2
	c-0.1,0-0.3,0-0.3-0.1l-0.7-1.2C116.1,386.3,116.2,386.1,116.4,386C116.4,386,116.4,386,116.4,386z"/>
<path class="st17" d="M122.7,384.7l4.6-1.1c0.1,0,0.2,0,0.3,0.1l0.9,1c0.1,0.1,0.1,0.3,0,0.5c0,0-0.1,0.1-0.1,0.1l-4.6,1.1
	c-0.1,0-0.2,0-0.3-0.1l-1-1c-0.1-0.1-0.1-0.3,0.1-0.4C122.7,384.7,122.7,384.7,122.7,384.7z"/>
<path class="st17" d="M128.9,383.3l4.8-1.2c0.1,0,0.2,0,0.2,0.1l1,1c0.1,0.1,0.1,0.3,0,0.4c0,0-0.1,0.1-0.1,0.1l-4.7,1.2
	c-0.1,0-0.2,0-0.2-0.1l-1.1-1.1c-0.1-0.1-0.1-0.3,0-0.4C128.8,383.3,128.8,383.3,128.9,383.3z"/>
<path class="st17" d="M135,381.8l4.8-1.2c0.1,0,0.2,0,0.2,0.1l1,1c0.1,0.1,0.1,0.3,0,0.4c0,0-0.1,0.1-0.1,0.1l-4.7,1.2
	c-0.1,0-0.2,0-0.2-0.1l-1-1.1C134.8,382.2,134.8,382,135,381.8C134.9,381.9,135,381.9,135,381.8z"/>
<path class="st17" d="M141.1,380.6l4.8-1.2c0.1,0,0.2,0,0.2,0.1l1,1c0.1,0.1,0.1,0.3,0,0.4c0,0-0.1,0-0.1,0.1l-4.7,1.2
	c-0.1,0-0.2,0-0.2-0.1L141,381C140.9,380.9,140.9,380.8,141.1,380.6C141,380.6,141.1,380.6,141.1,380.6z"/>
<path class="st17" d="M146.9,379.2l4.9-1.2c0.1,0,0.1,0,0.2,0l1.1,1.2c0.1,0.1,0.1,0.2,0,0.3c0,0,0,0-0.1,0l-4.9,1.2
	c-0.1,0-0.1,0-0.2,0l-1.2-1.2C146.8,379.4,146.8,379.3,146.9,379.2C146.9,379.2,146.9,379.2,146.9,379.2z"/>
<path class="st17" d="M152.8,377.9l4.9-1.2c0.1,0,0.1,0,0.2,0l1.1,1.1c0.1,0.1,0.1,0.2,0,0.3c0,0-0.1,0-0.1,0.1l-4.9,1.2
	c-0.1,0-0.1,0-0.2,0l-1.2-1.2C152.6,378.2,152.6,378.1,152.8,377.9C152.7,378,152.7,378,152.8,377.9z"/>
<path class="st17" d="M158.6,376.6l4.6-1c0.1,0,0.1,0,0.2,0.1l0.9,1.1c0.1,0.1,0,0.2,0,0.3c0,0,0,0-0.1,0l-4.3,1.1
	c-0.1,0-0.1,0-0.2,0l-1.2-1.2c-0.1-0.1-0.1-0.2,0-0.3C158.5,376.6,158.6,376.6,158.6,376.6z"/>
<path class="st17" d="M164.2,375.3l4.6-1c0.1,0,0.1,0,0.2,0.1l0.9,1.1c0.1,0.1,0.1,0.2,0,0.3c0,0-0.1,0-0.1,0l-4.3,1.1
	c-0.1,0-0.1,0-0.2,0l-1.1-1.2c-0.1-0.1-0.1-0.2-0.1-0.3C164.1,375.4,164.1,375.3,164.2,375.3z"/>
<path class="st17" d="M86.7,399.3l1.7,2.4c0.1,0.1,0.2,0.1,0.3,0.1l8.8-2c0.2,0,0.3-0.2,0.2-0.3c0,0,0-0.1-0.1-0.1l-1.9-2.4
	c-0.1-0.1-0.2-0.1-0.3-0.1l-8.6,2.1c-0.2,0-0.3,0.2-0.2,0.3C86.6,399.2,86.6,399.2,86.7,399.3z"/>
<path class="st17" d="M89.3,402.5l1.7,2.7c0.1,0.1,0.2,0.2,0.3,0.1l10.6-2.5c0.2,0,0.3-0.2,0.2-0.3c0,0,0-0.1-0.1-0.1l-2.1-2.6
	c-0.1-0.1-0.2-0.1-0.3-0.1l-10.1,2.4C89.4,402.1,89.3,402.3,89.3,402.5C89.3,402.4,89.3,402.5,89.3,402.5z"/>
<path class="st17" d="M91.7,406l2,2.9c0.1,0.1,0.2,0.1,0.3,0.1l14-3.5c0.2,0,0.3-0.2,0.2-0.4c0,0,0-0.1-0.1-0.1l-2.2-2.9
	c-0.1-0.1-0.2-0.1-0.3-0.1l-13.8,3.5C91.6,405.7,91.6,405.8,91.7,406C91.7,406,91.7,406,91.7,406z"/>
<path class="st17" d="M123.8,402.9l2.6,3.1c0.1,0.1,0.2,0.1,0.3,0.1l30.8-7.7c0.2,0,0.3-0.2,0.2-0.4c0-0.1,0-0.1-0.1-0.1l-3.1-3.1
	c-0.1-0.1-0.2-0.1-0.3-0.1l-30.2,7.7c-0.2,0-0.3,0.2-0.2,0.4C123.7,402.8,123.7,402.8,123.8,402.9z"/>
<path class="st17" d="M155.6,394.9l3,3c0.1,0.1,0.2,0.1,0.2,0.1l6.3-1.7c0.1,0,0.2-0.2,0.2-0.3c0,0,0-0.1-0.1-0.1l-3.1-3.1
	c-0.1-0.1-0.2-0.1-0.2-0.1l-6.2,1.7c-0.1,0-0.2,0.2-0.2,0.3C155.5,394.8,155.5,394.9,155.6,394.9z"/>
<path class="st17" d="M170.8,393l1.4,1.5c0,0.1,0.1,0.1,0.2,0l4.7-1.2c0.1,0,0.2-0.1,0.1-0.2c0,0,0-0.1-0.1-0.1l-1.7-1.6
	c0,0-0.1-0.1-0.2,0l-4.4,1.4C170.8,392.7,170.7,392.8,170.8,393C170.8,393,170.8,393,170.8,393z"/>
<path class="st17" d="M174.8,389.9l1.6,1.7c0.1,0,0.1,0,0.2,0l4.3-1.5c0.1,0,0.2-0.1,0.1-0.2c0,0,0-0.1-0.1-0.1l-1.6-1.4
	c-0.1,0-0.1,0-0.2,0l-4.3,1.2C174.7,389.7,174.7,389.8,174.8,389.9C174.8,389.9,174.8,389.9,174.8,389.9z"/>
<path class="st17" d="M177.9,392.9l-1.2-1c-0.1-0.1-0.1-0.2-0.1-0.3c0,0,0-0.1,0.1-0.1l4.3-1.5c0.1,0,0.1,0,0.2,0l1.3,1.3
	c0.1,0.1,0.1,0.2,0,0.3c0,0,0,0-0.1,0l-4.4,1.1C178,392.9,178,392.9,177.9,392.9z"/>
<path class="st17" d="M182.3,390.3c0.4,0.4,1,1.1,1.3,1.3c0,0.1,0.1,0.1,0.2,0l4.5-1.2c0.1,0,0.2-0.1,0.1-0.2c0,0,0-0.1-0.1-0.1
	l-1.6-1.4c-0.1,0-0.1,0-0.2,0l-4.1,1.3C182.3,390,182.3,390.2,182.3,390.3C182.3,390.3,182.3,390.3,182.3,390.3z"/>
<path class="st17" d="M169.8,387.4l2.4,2.3c0.1,0,0.1,0,0.2,0l11.5-3c0.1,0,0.2-0.1,0.1-0.2c0,0,0-0.1-0.1-0.1l-2.8-2.3
	c-0.1,0-0.1,0-0.2,0l-11.1,3c-0.1,0-0.2,0.1-0.1,0.2C169.8,387.3,169.8,387.4,169.8,387.4z"/>
<path class="st17" d="M169.1,383.9l2.5,2.2c0.1,0,0.1,0,0.2,0l8.6-2c0.1,0,0.2-0.1,0.1-0.2c0,0,0-0.1-0.1-0.1l-2.8-2.4
	c0,0-0.1,0-0.2,0l-8.3,2.2C169,383.6,169,383.7,169.1,383.9C169,383.8,169,383.9,169.1,383.9z"/>
<path class="st17" d="M169.8,380.1l2.3,2.1c0.1,0,0.1,0,0.2,0l4.4-1c0.1,0,0.2-0.1,0.1-0.2c0,0,0-0.1-0.1-0.1l-2.8-2.4
	c-0.1,0-0.1,0-0.2,0l-4,1.3c-0.1,0-0.2,0.1-0.1,0.2C169.8,380,169.8,380.1,169.8,380.1z"/>
<path class="st17" d="M163.8,378l2.2,2c0.1,0,0.1,0,0.2,0l7-1.7c0.1,0,0.2-0.1,0.1-0.2c0,0,0-0.1-0.1-0.1l-2.7-2.2
	c-0.1,0-0.1,0-0.2,0l-6.6,1.9C163.7,377.7,163.7,377.8,163.8,378C163.7,378,163.7,378,163.8,378z"/>
</svg>
